<svg width="16" height="16" viewBox="0 0 16 16" fill="none" xmlns="http://www.w3.org/2000/svg">
<path d="M11.7453 3.97866L12.714 3.00999L13.6566 3.95266L12.688 4.92132C13.6451 6.11943 14.1072 7.63857 13.9793 9.16675C13.8515 10.6949 13.1433 12.1161 12.0003 13.1385C10.8573 14.1608 9.3662 14.7067 7.83328 14.664C6.30036 14.6214 4.84196 13.9934 3.75761 12.909C2.67325 11.8247 2.04524 10.3663 2.00257 8.83333C1.9599 7.30041 2.50579 5.80934 3.52814 4.66633C4.5505 3.52333 5.9717 2.81516 7.49987 2.68727C9.02804 2.55938 10.5472 3.02148 11.7453 3.97866ZM7.33329 5.33332V9.33332H8.66663V5.33332H7.33329ZM5.33329 0.666656H10.6666V1.99999H5.33329V0.666656Z" fill="#575756"/>
</svg>
