<svg width="14" height="14" viewBox="0 0 14 14" fill="none" xmlns="http://www.w3.org/2000/svg">
<path fill-rule="evenodd" clip-rule="evenodd" d="M4.99992 0.666656V1.99999H8.99992V0.666656H10.3333V1.99999H12.9999C13.3681 1.99999 13.6666 2.29847 13.6666 2.66666V13.3333C13.6666 13.7015 13.3681 14 12.9999 14H0.999919C0.631729 14 0.333252 13.7015 0.333252 13.3333V2.66666C0.333252 2.29847 0.631729 1.99999 0.999919 1.99999H3.66659V0.666656H4.99992ZM12.3333 5.99999H1.66659V12.6667H12.3333V5.99999ZM4.33325 7.33332V8.66666H2.99992V7.33332H4.33325ZM7.66659 7.33332V8.66666H6.33325V7.33332H7.66659ZM10.9999 7.33332V8.66666H9.66659V7.33332H10.9999Z" fill="#575756"/>
</svg>
