<svg width="23" height="23" viewBox="0 0 23 23" xmlns="http://www.w3.org/2000/svg">
<g id="link_402730 1" clip-path="url(#clip0_524_622)">
<g id="Group">
<g id="Group_2">
<g id="Group_3">
<path id="Vector" d="M9.53519 17.5305L6.82499 20.2407C5.7014 21.3643 3.88183 21.3643 2.75918 20.2409C1.6363 19.118 1.6363 17.2983 2.75895 16.1756L8.18029 10.7543C9.30294 9.6316 11.1227 9.6316 12.2453 10.7543C12.6196 11.1285 13.2264 11.1285 13.6006 10.7543C13.9749 10.38 13.9749 9.77324 13.6006 9.399C11.7295 7.52781 8.69618 7.52781 6.82499 9.399L1.4037 14.8203C-0.467492 16.6915 -0.467492 19.7248 1.4037 21.5959C3.27466 23.4681 6.30816 23.4681 8.18034 21.5959L10.8905 18.8857C11.2648 18.5115 11.2648 17.9047 10.8905 17.5304C10.5163 17.1562 9.90943 17.1562 9.53519 17.5305Z" />
<path id="Vector_2" d="M21.5964 1.40339C19.7252 -0.467797 16.6909 -0.467797 14.8198 1.40339L11.5681 4.65503C11.1939 5.02928 11.1939 5.63609 11.5681 6.01033C11.9424 6.38458 12.5492 6.38458 12.9234 6.01033L16.1751 2.75869C17.2977 1.636 19.1184 1.636 20.2411 2.75869C21.3637 3.88134 21.3637 5.70109 20.2411 6.82374L14.2783 12.7866C13.1556 13.9093 11.3359 13.9093 10.2133 12.7866C9.83901 12.4123 9.2322 12.4123 8.85796 12.7866C8.48371 13.1608 8.48371 13.7676 8.85796 14.1419C10.7291 16.0131 13.7624 16.0131 15.6336 14.1419L21.5964 8.17909C23.4676 6.3079 23.4676 3.27458 21.5964 1.40339Z" />
</g>
</g>
</g>
</g>
<defs>
<clipPath id="clip0_524_622">
<rect width="23" height="23" fill="white"/>
</clipPath>
</defs>
</svg>
