<svg width="54" height="54" viewBox="0 0 54 54" fill="none" xmlns="http://www.w3.org/2000/svg">
<path d="M21.696 45.0131L16.5 34.1533L14.6659 34.2515L8.77889 31.3757L7.03516 23.4372L11.4617 18.7407L25.9065 15.7625L38.6539 6.46058C39.087 6.36438 39.4739 6.52679 39.6282 6.92506L41.5649 15.2908L44.057 15.6363L46.0928 24.2648L43.8509 25.4906L45.814 34.1957C45.6641 34.6695 45.189 34.8639 44.7007 34.7367L29.7643 31.4585L28.6676 31.5371C29.4976 33.6712 30.7123 34.8164 27.3328 35.0977L30.7387 43.1976L21.696 45.0121V45.0131ZM42.9967 31.9561L37.9341 9.73157L27.2733 17.5728L29.836 29.0233L42.9978 31.9561H42.9967ZM26.5304 17.8759L12.7326 20.6442L15.324 32.0192L29.1217 29.2509L26.5304 17.8759ZM14.4179 31.4688L12.1054 21.3197L9.4711 24.1655C9.91309 25.7627 10.0575 27.6837 10.581 29.2302C10.9712 30.3826 13.3014 30.9526 14.4179 31.4688ZM41.7655 16.2818L43.6393 24.5069L45.2651 23.8914L43.5224 16.4111L43.1785 16.2115L41.7644 16.2818H41.7655ZM23.4463 32.585L18.9713 33.4829L23.0815 42.5397L27.4629 41.6604L23.4452 32.585H23.4463ZM27.7208 31.7461L25.8712 32.0998L26.958 34.3633L28.6665 34.1005L27.7197 31.7461H27.7208Z" fill="#FFFF00"/>
</svg>
