<svg width="44" height="44" viewBox="0 0 44 44" fill="none" xmlns="http://www.w3.org/2000/svg">
  <path
    d="M40.0653 14.3221C40.0653 14.3221 40.0653 14.3001 40.0616 14.2854C40.0616 14.2524 40.0543 14.2231 40.0433 14.1938C40.0396 14.1791 40.0323 14.1681 40.0249 14.1534C40.0103 14.1278 39.9956 14.1021 39.9773 14.0801C39.9699 14.0691 39.9589 14.0581 39.9516 14.0508C39.9186 14.0214 39.8856 13.9958 39.8416 13.9774L21.1416 6.4241C21.1013 6.40577 21.0573 6.4021 21.0133 6.39844C21.0023 6.39844 20.9913 6.39844 20.9803 6.39844C20.9473 6.39844 20.9143 6.40577 20.8849 6.41677C20.8776 6.41677 20.8703 6.41677 20.8629 6.42044C20.8556 6.42044 20.8519 6.42777 20.8483 6.43144C20.8189 6.4461 20.7896 6.46444 20.7639 6.4901C20.7566 6.49744 20.7493 6.5011 20.7419 6.50844C20.7419 6.50844 20.7383 6.50844 20.7346 6.51577C20.7053 6.5451 20.6869 6.58177 20.6723 6.61844C20.6723 6.61844 20.6723 6.61844 20.6723 6.6221L16.0706 18.0071C16.0706 18.0071 16.0706 18.0108 16.0706 18.0144C16.0559 18.0511 16.0449 18.0914 16.0449 18.1354C16.0449 18.1391 16.0449 18.1428 16.0449 18.1501C16.0449 18.1501 16.0449 18.1538 16.0449 18.1574C16.0449 18.2014 16.0559 18.2454 16.0743 18.2858C16.0743 18.2858 16.0743 18.2894 16.0743 18.2931C16.1109 18.3811 16.1769 18.4544 16.2723 18.4911L18.0396 19.2061H20.0086L17.4969 18.1904L25.3289 15.7118L26.8506 18.5864C26.9166 18.7074 27.0413 18.7808 27.1733 18.7808C27.2099 18.7808 27.2503 18.7734 27.2869 18.7624L30.3779 17.7504L31.1626 19.2024H31.9949L31.0819 17.5194L39.0643 14.9088L35.4783 23.7858V25.7438L40.0396 14.4541C40.0396 14.4541 40.0396 14.4504 40.0396 14.4468C40.0543 14.4101 40.0653 14.3698 40.0653 14.3294C40.0653 14.3294 40.0653 14.3221 40.0653 14.3184V14.3221ZM17.0313 17.5708L21.0463 7.6341L24.9733 15.0591L17.0313 17.5744V17.5708ZM27.3493 17.9741L21.7979 7.4801L38.6353 14.2818L27.3529 17.9741H27.3493Z"
    fill="black"/>
  <path
    d="M4.81049 14.2596L10.5635 17.4643L9.12983 19.2096H10.0795L11.2162 17.8273L13.4712 19.0849C13.5262 19.1143 13.5885 19.1326 13.6508 19.1326C13.7572 19.1326 13.8635 19.0849 13.9368 18.9969L15.5575 16.9876L16.7638 14.3219L13.5592 18.2966L5.35683 13.7279L17.9958 11.2713L18.3222 10.4609L4.22749 13.1999C4.18349 13.2073 4.14316 13.2256 4.10649 13.2476C4.09549 13.2549 4.08449 13.2623 4.07716 13.2696C4.05149 13.2879 4.02949 13.3099 4.01116 13.3356C4.00749 13.3429 4.00016 13.3466 3.99283 13.3539C3.99283 13.3576 3.98916 13.3649 3.98549 13.3723C3.96716 13.4016 3.95616 13.4309 3.94883 13.4639C3.94883 13.4749 3.94149 13.4823 3.93783 13.4933C3.93783 13.4933 3.93783 13.4969 3.93783 13.5006C3.93049 13.5409 3.93416 13.5813 3.93783 13.6216C3.93783 13.6216 3.93783 13.6253 3.93783 13.6289L5.84083 23.4116C5.84083 23.4116 5.84083 23.4153 5.84083 23.4189C5.84816 23.4593 5.86283 23.4959 5.88483 23.5326C5.95083 23.6463 6.07183 23.7123 6.20016 23.7123C6.22216 23.7123 6.24783 23.7123 6.26983 23.7049L7.58616 23.4483V22.6966L7.13516 22.7846L7.58616 22.2383V21.0833L6.41283 22.5096L4.81049 14.2596Z"
    fill="black"/>
  <path
    d="M34.3786 19.9431H8.68991C8.48824 19.9431 8.32324 20.1081 8.32324 20.3098V37.2314C8.32324 37.4331 8.48824 37.5981 8.68991 37.5981H34.3786C34.5802 37.5981 34.7452 37.4331 34.7452 37.2314V20.3098C34.7452 20.1081 34.5802 19.9431 34.3786 19.9431ZM31.8962 22.1871L21.5342 30.9174L11.1722 22.1871H31.8962ZM10.5232 22.5978L17.9446 28.8531L10.5232 34.9838V22.5978ZM11.1869 35.3871L18.5129 29.3334L21.2959 31.6801C21.3656 31.7388 21.4499 31.7681 21.5306 31.7681C21.6112 31.7681 21.6992 31.7388 21.7652 31.6801L24.5482 29.3334L31.8742 35.3871H11.1869ZM32.5452 34.9838L25.1239 28.8531L32.5452 22.5978V34.9838Z"
    fill="black"/>
</svg>
