<svg width="32" height="32" viewBox="0 0 32 32" fill="none" xmlns="http://www.w3.org/2000/svg">
<path d="M15.9996 1.33325C12.0164 1.33325 11.5169 1.35014 9.95263 1.42151C8.39147 1.49271 7.32536 1.74067 6.39239 2.10326C5.42799 2.47802 4.61 2.97952 3.79464 3.79489C2.97922 4.61031 2.47778 5.42823 2.10296 6.39264C1.74037 7.3256 1.49247 8.39172 1.42121 9.95287C1.34983 11.5172 1.33301 12.0166 1.33301 15.9999C1.33301 19.9831 1.34983 20.4826 1.42121 22.047C1.49247 23.6081 1.74037 24.6742 2.10296 25.6071C2.47778 26.5715 2.97922 27.3895 3.79464 28.2049C4.61 29.0203 5.42799 29.5218 6.39239 29.8966C7.32536 30.2592 8.39147 30.5071 9.95263 30.5784C11.5169 30.6497 12.0164 30.6666 15.9996 30.6666C19.9829 30.6666 20.4823 30.6497 22.0467 30.5784C23.6078 30.5071 24.6739 30.2592 25.6069 29.8966C26.5714 29.5218 27.3893 29.0203 28.2046 28.2049C29.0201 27.3895 29.5215 26.5716 29.8963 25.6071C30.2589 24.6742 30.5069 23.6081 30.5781 22.047C30.6495 20.4826 30.6663 19.9831 30.6663 15.9999C30.6663 12.0167 30.6495 11.5172 30.5781 9.95287C30.5069 8.39172 30.2589 7.3256 29.8963 6.39264C29.5215 5.42823 29.0201 4.61031 28.2046 3.79489C27.3893 2.97952 26.5714 2.47802 25.6069 2.10326C24.6739 1.74067 23.6078 1.49271 22.0467 1.42151C20.4823 1.35014 19.9829 1.33325 15.9996 1.33325ZM15.9996 3.97589L17.435 3.97685C19.3282 3.97988 20.1323 3.99082 20.9318 4.01941L21.1996 4.02961C21.4251 4.03868 21.6596 4.04919 21.9262 4.06136C23.3562 4.12662 24.1328 4.36555 24.6496 4.56641C25.3342 4.83247 25.8228 5.15029 26.336 5.6635C26.8492 6.17676 27.1671 6.66534 27.4332 7.34994C27.634 7.86675 27.8729 8.64334 27.9382 10.0733C27.9503 10.34 27.9608 10.5744 27.9699 10.8L27.9801 11.0678L27.989 11.3359C28.011 12.0594 28.02 12.8818 28.0227 14.5646V17.4352C28.02 19.1181 28.011 19.9404 27.989 20.6639L27.9801 20.932L27.9699 21.1999C27.9608 21.4254 27.9503 21.6598 27.9382 21.9265C27.8729 23.3565 27.634 24.1331 27.4332 24.6499C27.1671 25.3344 26.8492 25.8231 26.336 26.3363C25.8228 26.8495 25.3342 27.1674 24.6496 27.4334C24.1328 27.6342 23.3562 27.8732 21.9262 27.9384C20.5932 27.9993 20.0647 28.0188 17.4351 28.023L16.3927 28.0239C16.2656 28.0239 16.1347 28.0239 15.9996 28.0239L14.5642 28.023C11.9346 28.0188 11.4061 27.9993 10.0731 27.9384C8.6431 27.8732 7.86645 27.6342 7.34964 27.4334C6.66509 27.1674 6.17646 26.8495 5.66325 26.3363C5.15005 25.8231 4.83217 25.3344 4.56611 24.6499C4.36531 24.1331 4.12638 23.3565 4.06111 21.9265C4.04895 21.6599 4.03843 21.4254 4.02937 21.1999L4.01917 20.9321C3.99058 20.1325 3.97964 19.3284 3.9766 17.4352L3.9757 16.3929C3.97566 16.2659 3.97565 16.1349 3.97565 15.9999L3.9766 14.5646C3.97964 12.6714 3.99058 11.8673 4.01917 11.0678L4.02937 10.8C4.03843 10.5744 4.04895 10.34 4.06111 10.0733C4.12638 8.64334 4.36531 7.86675 4.56611 7.34994C4.83217 6.66534 5.15005 6.17676 5.66325 5.66355C6.17646 5.15029 6.66509 4.83247 7.34964 4.56641C7.86645 4.36555 8.6431 4.12662 10.073 4.06136C11.4063 4.00053 11.9349 3.98106 14.5643 3.97685L15.6067 3.97594C15.7337 3.97591 15.8646 3.97589 15.9996 3.97589ZM15.9996 8.46839C11.8401 8.46839 8.46809 11.8403 8.46809 15.9999C8.46809 20.1595 11.8401 23.5314 15.9996 23.5314C20.1592 23.5314 23.5311 20.1595 23.5311 15.9999C23.5311 11.8403 20.1592 8.46839 15.9996 8.46839ZM15.9996 11.111C18.6997 11.111 20.8886 13.2998 20.8886 15.9999C20.8886 18.6999 18.6997 20.8888 15.9996 20.8888C13.2996 20.8888 11.1107 18.6999 11.1107 15.9999C11.1107 13.2998 13.2996 11.111 15.9996 11.111ZM23.8288 6.41085C22.8567 6.41085 22.0687 7.19879 22.0687 8.17082C22.0687 9.14285 22.8567 9.93079 23.8288 9.93079C24.8008 9.93079 25.5887 9.14285 25.5887 8.17082C25.5887 7.19879 24.8008 6.41085 23.8288 6.41085Z" fill="black"/>
</svg>
