<svg width="23" height="23" viewBox="0 0 23 23" xmlns="http://www.w3.org/2000/svg">
<g id="email_542689 1">
<g id="Group">
<g id="Group_2">
<path id="Vector" d="M14.9031 12.4546L12.9768 14.3874C12.1956 15.1713 10.8212 15.1882 10.0232 14.3874L8.09679 12.4546L1.1781 19.3957C1.43564 19.5148 1.71959 19.5859 2.02146 19.5859H20.9785C21.2804 19.5859 21.5642 19.5149 21.8217 19.3958L14.9031 12.4546Z" />
</g>
</g>
<g id="Group_3">
<g id="Group_4">
<path id="Vector_2" d="M20.9785 3.41406H2.0215C1.71962 3.41406 1.43567 3.48513 1.17822 3.60422L8.57133 11.0219C8.57182 11.0223 8.57241 11.0224 8.5729 11.0229C8.5734 11.0234 8.57349 11.0241 8.57349 11.0241L10.9774 13.436C11.2327 13.6913 11.7674 13.6913 12.0227 13.436L14.4261 11.0245C14.4261 11.0245 14.4267 11.0234 14.4272 11.0229C14.4272 11.0229 14.4283 11.0223 14.4288 11.0219L21.8217 3.60417C21.5643 3.48504 21.2804 3.41406 20.9785 3.41406Z" />
</g>
</g>
<g id="Group_5">
<g id="Group_6">
<path id="Vector_3" d="M0.214996 4.54688C0.0817578 4.81632 0 5.11541 0 5.43579V17.5647C0 17.8851 0.081668 18.1842 0.214951 18.4536L7.14563 11.5005L0.214996 4.54688Z" />
</g>
</g>
<g id="Group_7">
<g id="Group_8">
<path id="Vector_4" d="M22.785 4.54639L15.8544 11.5001L22.785 18.4533C22.9183 18.1839 23 17.8848 23 17.5643V5.43539C23 5.11492 22.9183 4.81583 22.785 4.54639Z" />
</g>
</g>
</g>
</svg>
