<svg width="50" height="54" viewBox="0 0 50 54" fill="none" xmlns="http://www.w3.org/2000/svg">
<path d="M39.4886 18.635C36.075 15.4817 30.5402 15.4817 27.1266 18.635L24.8094 20.7735L22.4901 18.635C19.0765 15.4817 13.5438 15.4817 10.1302 18.635C6.28993 22.1807 6.28993 27.9184 10.1302 31.4641L24.8094 45.0203L39.4886 31.4641C43.3268 27.9184 43.3268 22.1787 39.4886 18.635ZM37.3122 29.3564L24.8094 41.0966L12.3045 29.3564C11.0448 28.1916 10.5569 26.6714 10.5569 25.0547C10.5569 23.438 10.8386 22.1109 12.1004 20.9482C13.213 19.919 14.7095 19.352 16.3122 19.352C17.9128 19.352 19.4093 20.3298 20.522 21.3611L24.8094 25.1101L29.0947 21.359C30.2094 20.3278 31.7039 19.3499 33.3066 19.3499C34.9092 19.3499 36.4057 19.9169 37.5184 20.9461C38.7801 22.1088 39.0598 23.4359 39.0598 25.0526C39.0598 26.6694 38.5739 28.1916 37.3122 29.3564Z" fill="#FFFF00"/>
</svg>
