<svg class="tax-deduction" width="293" height="133" viewBox="0 0 293 133" fill="none" xmlns="http://www.w3.org/2000/svg">
  <path d="M54.1857 108.371C84.1117 108.371 108.371 84.1117 108.371 54.1857C108.371 24.2598 84.1117 0 54.1857 0C24.2598 0 0 24.2598 0 54.1857C0 84.1117 24.2598 108.371 54.1857 108.371Z" fill="white"/>
  <path d="M50.3019 5.57056V10.6557C43.3856 11.3691 36.7338 13.6986 30.8837 17.4564C25.0335 21.2141 20.1488 26.2946 16.624 32.288C13.0991 38.2813 11.0327 45.0194 10.5917 51.9585C10.1507 58.8975 11.3474 65.843 14.0852 72.2344L9.64471 74.7093C6.4851 67.5405 5.0751 59.7232 5.53103 51.9022C5.98696 44.0813 8.29574 36.4808 12.2669 29.7277C16.2381 22.9745 21.7579 17.2623 28.3711 13.0621C34.9842 8.8619 42.5012 6.29412 50.3019 5.57056Z" fill="#FFFF00"/>
  <path d="M59.3753 5.57056C67.6615 6.33347 75.6208 9.17708 82.5146 13.8375C89.4084 18.498 95.0133 24.8242 98.8093 32.2293C102.605 39.6344 104.469 47.8783 104.228 56.1961C103.987 64.5139 101.649 72.6361 97.4309 79.809C93.2126 86.9819 87.2509 92.9731 80.0988 97.2266C72.9468 101.48 64.8362 103.858 56.5197 104.14C48.2032 104.422 39.9502 102.599 32.5265 98.8393C25.1028 95.0799 18.749 89.5062 14.0547 82.6354L18.4952 80.1605C22.7512 86.2493 28.4687 91.1712 35.1227 94.4742C41.7768 97.7773 49.154 99.3557 56.577 99.0645C64.0001 98.7732 71.231 96.6217 77.6057 92.8074C83.9805 88.9932 89.2948 83.6384 93.0607 77.2349C96.8265 70.8315 98.9232 63.5845 99.1582 56.1594C99.3932 48.7344 97.7589 41.3693 94.4055 34.7405C91.0521 28.1117 86.0871 22.4317 79.9662 18.222C73.8454 14.0122 66.765 11.4078 59.3753 10.6477V5.57056Z" fill="black"/>
  <path d="M93.9043 123.539C94.4304 124.11 95.0115 124.627 95.6391 125.083V119.584C95.0338 119.201 94.4543 118.778 93.9043 118.319V123.539Z" fill="#F2F2F2"/>
  <path d="M98.6777 126.85C99.2268 127.112 99.8078 127.359 100.413 127.59V121.836C99.8131 121.624 99.2348 121.396 98.6777 121.152V126.85Z" fill="#F2F2F2"/>
  <path d="M103.398 128.577C103.961 128.731 104.539 128.871 105.133 128.999V123.141C104.544 123.022 103.963 122.895 103.398 122.752V128.577Z" fill="#F2F2F2"/>
  <path d="M108.148 129.516C108.721 129.59 109.3 129.654 109.883 129.707V123.802C109.294 123.754 108.716 123.696 108.148 123.627V129.516Z" fill="#F2F2F2"/>
  <path d="M112.898 123.945V129.866H113.694H114.673V123.937H113.694L112.898 123.945Z" fill="#F2F2F2"/>
  <path d="M127.152 127.51C127.757 127.272 128.335 127.006 128.887 126.715V121.025C128.357 121.274 127.778 121.508 127.152 121.725V127.51Z" fill="#F2F2F2"/>
  <path d="M122.402 128.919C122.997 128.786 123.575 128.643 124.137 128.489V122.672C123.57 122.815 122.991 122.948 122.402 123.07V128.919Z" fill="#F2F2F2"/>
  <path d="M117.65 129.715C118.239 129.656 118.818 129.59 119.385 129.516V123.627C118.818 123.701 118.239 123.762 117.65 123.81V129.715Z" fill="#F2F2F2"/>
  <path d="M131.902 124.94C132.535 124.472 133.117 123.939 133.637 123.348V118.192C133.089 118.666 132.51 119.102 131.902 119.497V124.94Z" fill="#F2F2F2"/>
  <path d="M133.646 107.966C133.126 107.375 132.544 106.842 131.911 106.374C128.06 103.422 121.248 101.416 113.664 101.416C101.981 101.416 92.1055 106.191 92.1055 111.833C92.1655 113.371 92.8051 114.83 93.896 115.916C94.4222 116.486 95.0032 117.003 95.6308 117.459C96.5776 118.145 97.5875 118.74 98.6469 119.234C99.196 119.497 99.7769 119.743 100.382 119.974C101.369 120.353 102.376 120.679 103.398 120.953C103.96 121.107 104.538 121.247 105.133 121.375C106.104 121.582 107.109 121.757 108.149 121.9C108.722 121.974 109.3 122.038 109.884 122.091C110.87 122.181 111.876 122.234 112.9 122.25H113.695H114.674C115.698 122.25 116.704 122.192 117.69 122.075C118.279 122.017 118.857 121.948 119.425 121.868C120.486 121.725 121.492 121.545 122.441 121.327C123.035 121.194 123.614 121.051 124.176 120.897C125.198 120.617 126.205 120.282 127.192 119.895C127.797 119.656 128.375 119.391 128.927 119.099C129.99 118.59 131.001 117.977 131.943 117.268C132.576 116.801 133.157 116.267 133.678 115.677C134.686 114.656 135.252 113.28 135.252 111.845C135.252 110.411 134.686 109.034 133.678 108.013L133.646 107.966Z" fill="#F2F2F2"/>
  <path d="M133.645 105.459C133.109 104.997 132.542 104.572 131.95 104.186C127.716 101.4 121.159 99.6416 113.646 99.6416C100.587 99.6416 90.3535 104.981 90.3535 111.801V119.465C90.3535 121.852 91.6427 124.112 93.8789 125.982C94.4289 126.442 95.0084 126.864 95.6137 127.248C96.5765 127.855 97.5849 128.387 98.6298 128.839C99.1603 129.083 99.7386 129.312 100.365 129.524C101.32 129.863 102.325 130.166 103.381 130.431C103.946 130.574 104.527 130.702 105.116 130.821C106.086 131.017 107.092 131.179 108.132 131.306C108.705 131.375 109.283 131.434 109.866 131.481C110.848 131.561 111.853 131.609 112.883 131.625H113.678H114.657C115.681 131.625 116.686 131.572 117.673 131.465C118.262 131.412 118.84 131.351 119.408 131.282C120.469 131.15 121.474 130.983 122.424 130.781C123.018 130.659 123.597 130.526 124.159 130.383C125.22 130.113 126.225 129.802 127.175 129.452C127.774 129.235 128.353 129.001 128.91 128.752C129.956 128.302 130.964 127.77 131.926 127.16C132.533 126.765 133.113 126.329 133.661 125.855C135.77 124.017 136.971 121.876 136.971 119.489V111.825C136.955 109.454 135.754 107.289 133.645 105.459ZM93.9028 118.311C94.4528 118.77 95.0323 119.193 95.6376 119.576V125.075C95.01 124.619 94.4289 124.102 93.9028 123.531V118.311ZM98.6775 121.16C99.2081 121.404 99.7863 121.632 100.412 121.844V127.598C99.8076 127.367 99.2266 127.12 98.6775 126.858V121.16ZM103.452 122.752C104.017 122.895 104.598 123.022 105.187 123.141V128.999C104.593 128.871 104.015 128.731 103.452 128.577V122.752ZM108.227 123.619C108.8 123.688 109.378 123.746 109.962 123.794V129.715C109.373 129.662 108.795 129.598 108.227 129.524V123.619ZM113.002 123.945H113.798H114.776V129.874H113.798H113.002V123.945ZM117.777 123.778C118.366 123.725 118.944 123.664 119.511 123.595V129.484C118.938 129.564 118.36 129.63 117.777 129.683V123.778ZM122.551 123.094C123.146 122.972 123.724 122.839 124.286 122.696V128.513C123.724 128.667 123.146 128.81 122.551 128.943V123.094ZM127.326 121.765C127.926 121.547 128.504 121.314 129.061 121.064V126.754C128.53 127.025 127.952 127.29 127.326 127.55V121.765ZM132.101 119.433C132.708 119.038 133.288 118.602 133.836 118.128V123.285C133.315 123.875 132.734 124.409 132.101 124.876V119.433ZM133.836 115.621C133.315 116.211 132.734 116.745 132.101 117.213C131.159 117.921 130.148 118.534 129.085 119.043C128.554 119.314 127.976 119.579 127.35 119.839C126.363 120.226 125.356 120.561 124.334 120.842C123.772 120.995 123.193 121.139 122.599 121.271C121.628 121.489 120.623 121.669 119.583 121.812C119.01 121.892 118.432 121.961 117.848 122.019C116.861 122.115 115.856 122.173 114.832 122.194H113.853H113.058C112.034 122.194 111.028 122.141 110.042 122.035C109.453 121.982 108.874 121.919 108.307 121.844C107.246 121.706 106.24 121.531 105.291 121.319C104.696 121.192 104.118 121.051 103.556 120.897C102.534 120.624 101.527 120.297 100.54 119.918C99.9349 119.688 99.354 119.441 98.8049 119.178C97.7454 118.684 96.7355 118.09 95.7888 117.404C95.1612 116.947 94.5801 116.43 94.054 115.86C92.9631 114.774 92.3234 113.316 92.2634 111.777C92.2634 106.127 102.131 101.361 113.822 101.361C121.398 101.361 128.21 103.366 132.069 106.318C132.702 106.786 133.284 107.32 133.804 107.91C134.812 108.93 135.378 110.307 135.378 111.742C135.378 113.176 134.812 114.553 133.804 115.573L133.836 115.621Z" fill="black"/>
  <path d="M91.0957 113.544C91.6219 114.115 92.2029 114.632 92.8305 115.088V109.581C92.2252 109.198 91.6457 108.775 91.0957 108.316V113.544Z" fill="#F2F2F2"/>
  <path d="M95.8457 116.855C96.3948 117.117 96.9757 117.364 97.5805 117.595V111.841C96.981 111.629 96.4028 111.401 95.8457 111.157V116.855Z" fill="#F2F2F2"/>
  <path d="M100.604 118.574C101.166 118.727 101.744 118.868 102.338 118.995V113.138C101.749 113.019 101.169 112.892 100.604 112.748V118.574Z" fill="#F2F2F2"/>
  <path d="M105.355 119.521C105.928 119.595 106.507 119.659 107.09 119.712V113.799C106.501 113.751 105.923 113.693 105.355 113.624V119.521Z" fill="#F2F2F2"/>
  <path d="M110.105 113.95V119.871H110.901H111.88V113.942H110.901L110.105 113.95Z" fill="#F2F2F2"/>
  <path d="M124.359 117.515C124.964 117.276 125.542 117.011 126.094 116.719V111.029C125.564 111.279 124.985 111.512 124.359 111.73V117.515Z" fill="#F2F2F2"/>
  <path d="M119.609 118.948C120.204 118.815 120.782 118.672 121.344 118.518V112.701C120.777 112.844 120.198 112.977 119.609 113.099V118.948Z" fill="#F2F2F2"/>
  <path d="M114.857 119.688C115.446 119.629 116.025 119.563 116.592 119.489V113.6C116.025 113.674 115.446 113.735 114.857 113.783V119.688Z" fill="#F2F2F2"/>
  <path d="M129.109 114.921C129.742 114.453 130.324 113.92 130.844 113.329V108.172C130.296 108.646 129.717 109.082 129.109 109.478V114.921Z" fill="#F2F2F2"/>
  <path d="M130.845 97.9625C130.325 97.3722 129.743 96.8387 129.11 96.371C125.259 93.4185 118.447 91.4131 110.863 91.4131C99.1805 91.4131 89.3047 96.1879 89.3047 101.83C89.3647 103.368 90.0044 104.827 91.0952 105.913C91.6214 106.483 92.2025 107 92.8301 107.456C93.7768 108.142 94.7867 108.737 95.8461 109.231C96.3952 109.494 96.9762 109.74 97.581 109.971C98.5686 110.35 99.5753 110.676 100.597 110.95C101.159 111.104 101.738 111.244 102.332 111.372C103.303 111.579 104.308 111.754 105.348 111.897C105.921 111.971 106.499 112.035 107.083 112.088C108.07 112.178 109.075 112.231 110.099 112.247H110.895H111.873C112.897 112.247 113.903 112.189 114.89 112.072C115.478 112.014 116.057 111.945 116.624 111.865C117.685 111.722 118.691 111.541 119.64 111.324C120.235 111.191 120.813 111.048 121.375 110.894C122.398 110.614 123.404 110.279 124.391 109.892C124.996 109.653 125.574 109.388 126.126 109.096C127.19 108.587 128.2 107.974 129.142 107.265C129.775 106.798 130.357 106.264 130.877 105.674C131.885 104.653 132.451 103.277 132.451 101.842C132.451 100.407 131.885 99.0307 130.877 98.0103L130.845 97.9625Z" fill="#F2F2F2"/>
  <path d="M130.844 95.4955C130.308 95.0339 129.742 94.6085 129.149 94.2222C124.915 91.4369 118.358 89.6782 110.846 89.6782C97.7867 89.6782 87.5527 95.018 87.5527 101.838V109.502C87.5527 111.889 88.8419 114.149 91.0781 116.019C91.6281 116.478 92.2076 116.901 92.8129 117.284C93.7757 117.892 94.7841 118.424 95.829 118.876C96.3595 119.12 96.9378 119.348 97.5638 119.56C98.5188 119.9 99.5242 120.202 100.58 120.468C101.145 120.611 101.726 120.738 102.315 120.858C103.286 121.054 104.291 121.216 105.331 121.343C105.904 121.412 106.482 121.47 107.066 121.518C108.047 121.598 109.052 121.645 110.082 121.661H110.878H111.856C112.88 121.661 113.886 121.608 114.872 121.502C115.461 121.449 116.04 121.388 116.607 121.319C117.668 121.186 118.674 121.019 119.623 120.818C120.218 120.696 120.796 120.563 121.358 120.42C122.419 120.149 123.425 119.839 124.374 119.489C124.974 119.271 125.552 119.038 126.109 118.788C127.155 118.339 128.164 117.806 129.125 117.197C129.732 116.802 130.312 116.366 130.86 115.892C132.969 114.053 134.17 111.913 134.17 109.525V101.862C134.155 99.4745 132.953 97.294 130.844 95.4955ZM91.094 108.348C91.644 108.807 92.2235 109.23 92.8289 109.613V115.112C92.2013 114.655 91.6202 114.138 91.094 113.568V108.348ZM95.8688 111.197C96.3993 111.441 96.9776 111.669 97.6036 111.881V117.635C96.9988 117.404 96.4179 117.157 95.8688 116.894V111.197ZM100.644 112.788C101.209 112.931 101.79 113.059 102.378 113.178V119.035C101.784 118.908 101.206 118.767 100.644 118.613V112.788ZM105.418 113.656C105.991 113.725 106.57 113.783 107.153 113.831V119.735C106.564 119.682 105.986 119.619 105.418 119.544V113.656ZM110.193 113.982H110.989H111.968V119.911H110.989H110.193V113.982ZM114.968 113.815C115.557 113.762 116.135 113.701 116.703 113.632V119.521C116.13 119.6 115.551 119.666 114.968 119.72V113.815ZM119.743 113.13C120.337 113.008 120.915 112.876 121.478 112.732V118.55C120.915 118.704 120.337 118.847 119.743 118.979V113.13ZM124.517 111.801C125.117 111.584 125.695 111.35 126.252 111.101V116.791C125.722 117.062 125.143 117.327 124.517 117.587V111.801ZM129.292 109.47C129.899 109.074 130.479 108.638 131.027 108.165V113.321C130.507 113.912 129.925 114.445 129.292 114.913V109.47ZM131.027 105.658C130.507 106.248 129.925 106.782 129.292 107.249C128.35 107.958 127.34 108.571 126.276 109.08C125.746 109.35 125.167 109.616 124.541 109.876C123.554 110.263 122.548 110.598 121.525 110.878C120.963 111.032 120.385 111.175 119.79 111.308C118.82 111.525 117.814 111.706 116.774 111.849C116.201 111.929 115.623 111.998 115.04 112.056C114.053 112.151 113.047 112.21 112.023 112.231H111.045H110.249C109.225 112.231 108.22 112.178 107.233 112.072C106.644 112.019 106.066 111.955 105.498 111.881C104.437 111.743 103.432 111.568 102.482 111.356C101.888 111.228 101.309 111.088 100.747 110.934C99.7253 110.66 98.7186 110.334 97.731 109.955C97.1262 109.724 96.5452 109.478 95.9961 109.215C94.9367 108.721 93.9268 108.126 92.9801 107.44C92.3525 106.984 91.7714 106.467 91.2452 105.897C90.1544 104.811 89.5147 103.352 89.4547 101.814C89.4547 96.164 99.3226 91.3971 111.013 91.3971C118.589 91.3971 125.401 93.4025 129.26 96.355C129.893 96.8227 130.475 97.3562 130.995 97.9465C132.004 98.9669 132.569 100.344 132.569 101.778C132.569 103.213 132.004 104.59 130.995 105.61L131.027 105.658Z" fill="black"/>
  <path d="M94.1113 103.016C94.6375 103.586 95.2186 104.103 95.8462 104.56V99.0606C95.2408 98.6772 94.6613 98.2545 94.1113 97.7953V103.016Z" fill="#F2F2F2"/>
  <path d="M98.8613 106.334C99.4104 106.597 99.9914 106.844 100.596 107.074V101.321C99.9967 101.109 99.4184 100.88 98.8613 100.636V106.334Z" fill="#F2F2F2"/>
  <path d="M103.611 108.053C104.174 108.207 104.752 108.348 105.346 108.475V102.618C104.757 102.498 104.176 102.371 103.611 102.228V108.053Z" fill="#F2F2F2"/>
  <path d="M108.363 109.024C108.936 109.098 109.515 109.162 110.098 109.215V103.31C109.509 103.263 108.931 103.204 108.363 103.135V109.024Z" fill="#F2F2F2"/>
  <path d="M113.115 103.453V109.374H113.911H114.89V103.453H113.911H113.115Z" fill="#F2F2F2"/>
  <path d="M127.367 106.995C127.972 106.756 128.55 106.491 129.102 106.199V100.509C128.571 100.758 127.993 100.992 127.367 101.209V106.995Z" fill="#F2F2F2"/>
  <path d="M122.617 108.427C123.211 108.294 123.79 108.151 124.352 107.997V102.18C123.784 102.323 123.206 102.456 122.617 102.578V108.427Z" fill="#F2F2F2"/>
  <path d="M117.865 109.167C118.454 109.109 119.032 109.043 119.6 108.968V103.079C119.032 103.154 118.454 103.215 117.865 103.262V109.167Z" fill="#F2F2F2"/>
  <path d="M132.102 104.4C132.734 103.933 133.316 103.399 133.836 102.809V97.6521C133.288 98.126 132.709 98.562 132.102 98.9572V104.4Z" fill="#F2F2F2"/>
  <path d="M133.861 87.442C133.34 86.8517 132.759 86.3182 132.126 85.8504C128.274 82.898 121.462 80.8926 113.878 80.8926C102.196 80.8926 92.3203 85.6674 92.3203 91.3095C92.3803 92.8476 93.02 94.306 94.1109 95.392C94.637 95.9623 95.2181 96.4795 95.8457 96.9358C96.7924 97.6218 97.8023 98.216 98.8618 98.7104C99.4109 98.9731 99.9918 99.2198 100.597 99.4505C101.584 99.8291 102.591 100.156 103.613 100.429C104.175 100.583 104.753 100.724 105.347 100.851C106.318 101.058 107.324 101.233 108.364 101.376C108.937 101.451 109.515 101.514 110.098 101.567C111.085 101.658 112.091 101.711 113.114 101.727H113.91H114.889C115.913 101.727 116.918 101.668 117.905 101.551C118.494 101.493 119.072 101.424 119.64 101.345C120.701 101.201 121.706 101.021 122.656 100.803C123.25 100.671 123.829 100.528 124.391 100.374C125.413 100.093 126.42 99.7583 127.407 99.371C128.012 99.1322 128.59 98.867 129.142 98.5752C130.205 98.0664 131.216 97.4533 132.158 96.7448C132.791 96.2771 133.372 95.7436 133.893 95.1532C134.901 94.1329 135.467 92.7561 135.467 91.3215C135.467 89.8869 134.901 88.5101 133.893 87.4897L133.861 87.442Z" fill="#F2F2F2"/>
  <path d="M133.862 84.9353C133.326 84.4736 132.759 84.0483 132.167 83.662C127.933 80.8767 121.376 79.118 113.863 79.118C100.804 79.118 90.5703 84.4578 90.5703 91.2777V98.9413C90.5703 101.329 91.8595 103.589 94.0957 105.459C94.6457 105.918 95.2252 106.341 95.8305 106.724C96.7933 107.332 97.8017 107.864 98.8466 108.316C99.3771 108.56 99.9554 108.788 100.581 109C101.536 109.34 102.542 109.642 103.597 109.907C104.163 110.051 104.743 110.178 105.332 110.297C106.303 110.494 107.309 110.655 108.348 110.783C108.921 110.852 109.5 110.91 110.083 110.958C111.065 111.037 112.07 111.085 113.099 111.101H113.895H114.874C115.898 111.101 116.903 111.048 117.89 110.942C118.479 110.889 119.057 110.828 119.625 110.759C120.686 110.626 121.691 110.459 122.641 110.257C123.235 110.135 123.813 110.003 124.376 109.86C125.437 109.589 126.442 109.279 127.392 108.929C127.991 108.711 128.57 108.478 129.127 108.228C130.173 107.778 131.181 107.246 132.143 106.637C132.75 106.242 133.33 105.806 133.878 105.332C135.986 103.493 137.188 101.353 137.188 98.9651V91.3016C137.172 88.9381 135.97 86.7417 133.862 84.9353ZM94.1116 97.7874C94.6616 98.2466 95.2411 98.6693 95.8464 99.0527V104.552C95.2188 104.095 94.6378 103.578 94.1116 103.008V97.7874ZM98.8864 100.636C99.4169 100.88 99.9952 101.108 100.621 101.321V107.074C100.016 106.844 99.4355 106.597 98.8864 106.334V100.636ZM103.661 102.228C104.226 102.371 104.807 102.498 105.396 102.618V108.475C104.802 108.348 104.224 108.207 103.661 108.053V102.228ZM108.436 103.095C109.009 103.164 109.587 103.223 110.171 103.27V109.175C109.582 109.122 109.004 109.058 108.436 108.984V103.095ZM113.211 103.422H114.007H114.985V109.35H114.007H113.211V103.422ZM117.985 103.254C118.574 103.201 119.153 103.14 119.72 103.071V108.96C119.147 109.04 118.569 109.106 117.985 109.159V103.254ZM122.76 102.57C123.354 102.448 123.933 102.315 124.495 102.172V107.989C123.933 108.143 123.354 108.287 122.76 108.419V102.57ZM127.535 101.241C128.135 101.024 128.713 100.79 129.27 100.541V106.231C128.739 106.501 128.161 106.767 127.535 107.027V101.241ZM132.31 98.9094C132.917 98.5143 133.497 98.0782 134.045 97.6043V102.761C133.524 103.351 132.943 103.885 132.31 104.353V98.9094ZM134.045 95.0976C133.524 95.6879 132.943 96.2214 132.31 96.6892C131.368 97.3976 130.357 98.0107 129.294 98.5195C128.763 98.7901 128.185 99.0553 127.559 99.3153C126.572 99.7026 125.565 100.037 124.543 100.318C123.98 100.472 123.402 100.615 122.808 100.748C121.837 100.965 120.832 101.146 119.792 101.289C119.219 101.368 118.641 101.437 118.057 101.496C117.07 101.591 116.065 101.65 115.041 101.671H114.062H113.266C112.242 101.671 111.237 101.618 110.25 101.512C109.661 101.459 109.083 101.395 108.516 101.321C107.454 101.183 106.449 101.008 105.499 100.795C104.905 100.668 104.327 100.528 103.765 100.374C102.743 100.1 101.736 99.7734 100.749 99.3949C100.144 99.1641 99.5628 98.9174 99.0137 98.6548C97.9543 98.1604 96.9444 97.5661 95.9976 96.8801C95.37 96.4238 94.789 95.9067 94.2628 95.3363C93.1719 94.2504 92.5323 92.7919 92.4723 91.2539C92.4723 85.6037 102.34 80.8369 114.03 80.8369C121.606 80.8369 128.418 82.8423 132.278 85.7947C132.911 86.2625 133.492 86.796 134.013 87.3863C135.021 88.4067 135.587 89.7835 135.587 91.2181C135.587 92.6527 135.021 94.0294 134.013 95.0498L134.045 95.0976Z" fill="black"/>
  <path d="M91.3969 92.3123C91.9132 92.8981 92.4863 93.4313 93.1079 93.9039V88.405C92.5026 88.0216 91.923 87.5989 91.373 87.1396L91.3969 92.3123Z" fill="#F2F2F2"/>
  <path d="M96.1484 95.6547C96.6975 95.9173 97.2785 96.164 97.8833 96.3948V90.6412C97.2838 90.429 96.7055 90.2008 96.1484 89.9568V95.6547Z" fill="#F2F2F2"/>
  <path d="M100.898 97.3816C101.461 97.5355 102.039 97.6761 102.633 97.8034V91.9463C102.044 91.827 101.463 91.6996 100.898 91.5564V97.3816Z" fill="#F2F2F2"/>
  <path d="M105.65 98.3205C106.223 98.3948 106.802 98.4585 107.385 98.5115V92.6067C106.796 92.559 106.218 92.5006 105.65 92.4316V98.3205Z" fill="#F2F2F2"/>
  <path d="M110.4 92.7501V98.6787H111.196H112.175V92.7501H111.196H110.4Z" fill="#F2F2F2"/>
  <path d="M124.654 96.2914C125.259 96.0527 125.837 95.7874 126.389 95.4956V89.8057C125.859 90.055 125.28 90.2885 124.654 90.506V96.2914Z" fill="#F2F2F2"/>
  <path d="M119.902 97.7476C120.497 97.615 121.075 97.4717 121.637 97.3179V91.5165C121.07 91.6598 120.491 91.7924 119.902 91.9144V97.7476Z" fill="#F2F2F2"/>
  <path d="M115.15 98.4878C115.739 98.4294 116.318 98.3631 116.885 98.2889V92.4C116.318 92.4742 115.739 92.5352 115.15 92.583V98.4878Z" fill="#F2F2F2"/>
  <path d="M129.404 93.7209C130.037 93.2532 130.619 92.7197 131.139 92.1293V86.9726C130.591 87.4465 130.012 87.8825 129.404 88.2777V93.7209Z" fill="#F2F2F2"/>
  <path d="M131.146 76.7625C130.626 76.1722 130.044 75.6386 129.411 75.1709C125.56 72.2185 118.748 70.2131 111.164 70.2131C99.4813 70.2131 89.6055 74.9878 89.6055 80.63C89.6655 82.1681 90.3051 83.6265 91.396 84.7125C91.9222 85.2828 92.5032 85.7999 93.1308 86.2563C94.0776 86.9423 95.0875 87.5365 96.1469 88.0309C96.696 88.2936 97.2769 88.5403 97.8817 88.771C98.8694 89.1496 99.8761 89.4763 100.898 89.7499C101.46 89.9037 102.038 90.0443 102.633 90.1716C103.604 90.3785 104.609 90.5536 105.649 90.6969C106.222 90.7711 106.8 90.8348 107.384 90.8878C108.37 90.978 109.376 91.0311 110.4 91.047H111.195H112.174C113.198 91.047 114.204 90.9887 115.19 90.8719C115.779 90.8136 116.357 90.7446 116.925 90.665C117.986 90.5218 118.992 90.3414 119.941 90.1239C120.535 89.9913 121.114 89.848 121.676 89.6942C122.698 89.4135 123.705 89.0788 124.692 88.6915C125.297 88.4527 125.875 88.1874 126.427 87.8957C127.49 87.3869 128.501 86.7738 129.443 86.0653C130.076 85.5976 130.657 85.064 131.178 84.4737C132.186 83.4534 132.752 82.0766 132.752 80.642C132.752 79.2074 132.186 77.8306 131.178 76.8102L131.146 76.7625Z" fill="#F2F2F2"/>
  <path d="M131.147 74.2637C130.611 73.8021 130.044 73.3767 129.452 72.9904C125.218 70.2051 118.661 68.4464 111.148 68.4464C98.0894 68.4464 87.8555 73.7862 87.8555 80.6062V88.2697C87.8555 90.6571 89.1447 92.9171 91.3808 94.7873C91.9308 95.2465 92.5104 95.6692 93.1157 96.0526C94.0785 96.6601 95.0868 97.1923 96.1317 97.6442C96.6623 97.8882 97.2406 98.1163 97.8666 98.3285C98.8215 98.6681 99.8269 98.9705 100.883 99.2358C101.448 99.379 102.029 99.5063 102.617 99.6257C103.588 99.822 104.594 99.9838 105.634 100.111C106.207 100.18 106.785 100.238 107.368 100.286C108.35 100.366 109.355 100.414 110.384 100.429H111.18H112.159C113.183 100.429 114.188 100.376 115.175 100.27C115.764 100.217 116.342 100.156 116.91 100.087C117.971 99.9546 118.976 99.7875 119.926 99.5859C120.52 99.4639 121.099 99.3312 121.661 99.188C122.722 98.9174 123.727 98.6071 124.677 98.2569C125.276 98.0394 125.855 97.806 126.412 97.5566C127.458 97.1068 128.466 96.5746 129.428 95.965C130.035 95.57 130.615 95.1339 131.163 94.6599C133.272 92.8216 134.473 90.6809 134.473 88.2936V80.63C134.489 78.2586 133.256 76.094 131.147 74.2637ZM91.3968 87.1158C91.9467 87.575 92.5263 87.9977 93.1316 88.3811V93.9039C92.504 93.4476 91.9229 92.9304 91.3968 92.3601V87.1158ZM96.1715 89.9647C96.7021 90.2088 97.2803 90.4369 97.9064 90.6491V96.4027C97.3016 96.1719 96.7206 95.9252 96.1715 95.6626V89.9647ZM100.946 91.5563C101.511 91.6996 102.092 91.8269 102.681 91.9463V97.8033C102.087 97.676 101.509 97.5354 100.946 97.3816V91.5563ZM105.721 92.4237C106.294 92.4927 106.872 92.5511 107.456 92.5988V98.5036C106.867 98.4506 106.289 98.3869 105.721 98.3126V92.4237ZM110.496 92.75H111.292H112.27V98.6787H111.292H110.496V92.75ZM115.271 92.5829C115.86 92.5298 116.438 92.4688 117.005 92.3999V98.2888C116.433 98.3683 115.854 98.4347 115.271 98.4877V92.5829ZM120.045 91.8985C120.64 91.7765 121.218 91.6439 121.78 91.5006V97.3179C121.218 97.4717 120.64 97.615 120.045 97.7476V91.8985ZM124.82 90.5695C125.42 90.352 125.998 90.1186 126.555 89.8692V95.5592C126.024 95.8297 125.446 96.095 124.82 96.355V90.5695ZM129.595 88.2379C130.202 87.8427 130.782 87.4066 131.33 86.9327V92.0895C130.809 92.6798 130.228 93.2133 129.595 93.6811V88.2379ZM131.33 84.426C130.809 85.0163 130.228 85.5498 129.595 86.0176C128.653 86.726 127.642 87.3391 126.579 87.8479C126.048 88.1185 125.47 88.3837 124.844 88.6437C123.857 89.031 122.85 89.3657 121.828 89.6464C121.266 89.8003 120.687 89.9435 120.093 90.0761C119.122 90.2937 118.117 90.474 117.077 90.6173C116.504 90.6969 115.926 90.7658 115.342 90.8242C114.355 90.9197 113.35 90.978 112.326 90.9993H111.347H110.552C109.528 90.9993 108.522 90.9462 107.536 90.8401C106.947 90.7871 106.368 90.7234 105.801 90.6491C104.74 90.5112 103.734 90.3361 102.785 90.1239C102.19 89.9966 101.612 89.856 101.05 89.7021C100.028 89.4285 99.0213 89.1018 98.0337 88.7233C97.4289 88.4925 96.848 88.2458 96.2989 87.9832C95.2394 87.4888 94.2295 86.8946 93.2828 86.2086C92.6552 85.7522 92.0741 85.2351 91.548 84.6647C90.4571 83.5788 89.8174 82.1204 89.7574 80.5823C89.7574 74.9321 99.6253 70.1653 111.316 70.1653C118.892 70.1653 125.704 72.1707 129.563 75.1231C130.196 75.5909 130.778 76.1244 131.298 76.7147C132.306 77.7351 132.872 79.1119 132.872 80.5465C132.872 81.9811 132.306 83.3579 131.298 84.3782L131.33 84.426Z" fill="black"/>
  <path d="M94.2227 81.7919C94.7488 82.3622 95.3299 82.8793 95.9575 83.3357V77.8288C95.3522 77.4454 94.7726 77.0227 94.2227 76.5635V81.7919Z" fill="#F2F2F2"/>
  <path d="M98.9727 85.1024C99.5218 85.3651 100.103 85.6118 100.707 85.8425V80.0889C100.108 79.8767 99.5297 79.6486 98.9727 79.4045V85.1024Z" fill="#F2F2F2"/>
  <path d="M103.725 86.8293C104.287 86.9832 104.865 87.1238 105.459 87.2511V81.394C104.871 81.2747 104.29 81.1473 103.725 81.0041V86.8293Z" fill="#F2F2F2"/>
  <path d="M108.475 87.7682C109.048 87.8425 109.626 87.9062 110.209 87.9592V82.0544C109.621 82.0067 109.042 81.9483 108.475 81.8793V87.7682Z" fill="#F2F2F2"/>
  <path d="M113.225 82.1978V88.1185H114.02H114.999V82.1898H114.02L113.225 82.1978Z" fill="#F2F2F2"/>
  <path d="M127.479 85.7628C128.083 85.5241 128.662 85.2588 129.213 84.967V79.3169C128.683 79.5662 128.105 79.7997 127.479 80.0172V85.7628Z" fill="#F2F2F2"/>
  <path d="M122.729 87.1954C123.323 87.0627 123.901 86.9195 124.463 86.7656V80.9484C123.896 81.0916 123.317 81.2242 122.729 81.3463V87.1954Z" fill="#F2F2F2"/>
  <path d="M117.977 87.9435C118.565 87.8851 119.144 87.8188 119.711 87.7445V81.8557C119.144 81.9299 118.565 81.9909 117.977 82.0387V87.9435Z" fill="#F2F2F2"/>
  <path d="M132.23 83.1686C132.863 82.7009 133.445 82.1674 133.965 81.5771V76.3964C133.417 76.8703 132.838 77.3064 132.23 77.7015V83.1686Z" fill="#F2F2F2"/>
  <path d="M133.964 66.2182C133.444 65.6278 132.862 65.0943 132.23 64.6266C128.378 61.6742 121.566 59.6688 113.982 59.6688C102.3 59.6688 92.4238 64.4435 92.4238 70.0857C92.4838 71.6238 93.1235 73.0822 94.2144 74.1682C94.7405 74.7385 95.3216 75.2556 95.9492 75.712C96.8959 76.398 97.9058 76.9922 98.9653 77.4866C99.5144 77.7492 100.095 77.9959 100.7 78.2267C101.688 78.6053 102.694 78.932 103.716 79.2055C104.279 79.3594 104.857 79.5 105.451 79.6273C106.422 79.8342 107.427 80.0093 108.467 80.1525C109.04 80.2268 109.618 80.2905 110.202 80.3435C111.189 80.4337 112.194 80.4868 113.218 80.5027H114.014H114.993C116.017 80.5027 117.022 80.4443 118.009 80.3276C118.598 80.2693 119.176 80.2003 119.744 80.1207C120.805 79.9775 121.81 79.7971 122.76 79.5796C123.354 79.4469 123.932 79.3037 124.494 79.1498C125.517 78.8692 126.524 78.5345 127.51 78.1471C128.115 77.9084 128.694 77.6431 129.245 77.3513C130.309 76.8426 131.319 76.2294 132.261 75.521C132.894 75.0532 133.476 74.5197 133.996 73.9294C135.005 72.909 135.57 71.5323 135.57 70.0977C135.57 68.6631 135.005 67.2863 133.996 66.2659L133.964 66.2182Z" fill="#F2F2F2"/>
  <path d="M133.964 63.7114C133.428 63.2498 132.862 62.8244 132.269 62.4382C128.036 59.6529 121.478 57.8942 113.966 57.8942C100.923 57.8862 90.7207 63.226 90.7207 70.0301V77.6936C90.7207 80.081 92.0099 82.341 94.2461 84.2111C94.7961 84.6704 95.3756 85.0931 95.9809 85.4765C96.9437 86.084 97.9521 86.6161 98.997 87.0681C99.5275 87.3121 100.106 87.5402 100.732 87.7524C101.687 88.092 102.692 88.3944 103.748 88.6596C104.313 88.8029 104.894 88.9302 105.483 89.0496C106.454 89.2459 107.459 89.4077 108.499 89.535C109.072 89.604 109.65 89.6623 110.234 89.7101C111.215 89.7897 112.22 89.8374 113.25 89.8533H114.045H115.024C116.048 89.8533 117.054 89.8003 118.04 89.6942C118.629 89.6411 119.208 89.5801 119.775 89.5111C120.836 89.3785 121.842 89.2114 122.791 89.0098C123.385 88.8878 123.964 88.7551 124.526 88.6119C125.587 88.3413 126.593 88.031 127.542 87.6808C128.142 87.4633 128.72 87.2299 129.277 86.9805C130.323 86.5307 131.331 85.9985 132.293 85.3889C132.9 84.9939 133.48 84.5578 134.028 84.0838C136.137 82.2455 137.338 80.1048 137.338 77.7175V70.0301C137.283 67.7063 136.081 65.5418 133.964 63.7114ZM94.2222 76.5635C94.7722 77.0228 95.3517 77.4455 95.957 77.8289V83.3278C95.3294 82.8714 94.7484 82.3543 94.2222 81.784V76.5635ZM98.997 79.4125C99.5275 79.6565 100.106 79.8847 100.732 80.0969V85.8505C100.127 85.6197 99.5461 85.373 98.997 85.1104V79.4125ZM103.772 81.0041C104.337 81.1473 104.918 81.2747 105.507 81.394V87.2511C104.912 87.1238 104.334 86.9832 103.772 86.8293V81.0041ZM108.547 81.8715C109.12 81.9405 109.698 81.9988 110.281 82.0466V87.9514C109.692 87.8983 109.114 87.8347 108.547 87.7604V81.8715ZM113.321 82.1978H114.117H115.096V88.1265H114.117H113.321V82.1978ZM118.096 82.0307C118.685 81.9776 119.263 81.9166 119.831 81.8476V87.7365C119.258 87.8161 118.68 87.8824 118.096 87.9355V82.0307ZM122.871 81.3463C123.465 81.2243 124.043 81.0916 124.606 80.9484V86.7418C124.043 86.8956 123.465 87.0389 122.871 87.1715V81.3463ZM127.646 80.0173C128.245 79.7998 128.823 79.5663 129.38 79.317V85.0069C128.85 85.2775 128.272 85.5428 127.646 85.8027V80.0173ZM132.42 77.6856C132.962 77.2888 133.477 76.8582 133.964 76.3964V81.5532C133.444 82.1435 132.862 82.677 132.229 83.1448L132.42 77.6856ZM134.155 73.8738C133.635 74.4641 133.053 74.9976 132.42 75.4653C131.478 76.1738 130.468 76.7869 129.404 77.2957C128.874 77.5662 128.296 77.8315 127.67 78.0915C126.683 78.4788 125.676 78.8135 124.653 79.0942C124.091 79.248 123.513 79.3913 122.919 79.5239C121.948 79.7414 120.942 79.9218 119.903 80.065C119.33 80.1446 118.751 80.2136 118.168 80.272C117.181 80.3675 116.176 80.4258 115.152 80.447H114.173H113.377C112.353 80.447 111.348 80.394 110.361 80.2879C109.772 80.2348 109.194 80.1712 108.626 80.0969C107.565 79.9589 106.56 79.7839 105.61 79.5717C105.016 79.4443 104.438 79.3037 103.875 79.1499C102.854 78.8763 101.847 78.5496 100.859 78.1711C100.254 77.9403 99.6734 77.6936 99.1243 77.431C98.0649 76.9366 97.055 76.3423 96.1082 75.6563C95.4806 75.2 94.8996 74.6829 94.3734 74.1125C93.2268 73.0509 92.5317 71.5894 92.4317 70.0301C92.4317 64.3799 102.3 59.6131 113.99 59.6131C121.566 59.6131 128.378 61.6185 132.237 64.5709C132.87 65.0387 133.452 65.5722 133.972 66.1625C134.981 67.1829 135.546 68.5597 135.546 69.9943C135.546 71.4289 134.981 72.8056 133.972 73.826L134.155 73.8738Z" fill="black"/>
  <path d="M94.1113 70.4995C94.6375 71.0699 95.2186 71.587 95.8462 72.0434V66.5365C95.2404 66.148 94.6608 65.72 94.1113 65.2552V70.4995Z" fill="#F2F2F2"/>
  <path d="M98.8613 73.8181C99.4104 74.0808 99.9914 74.3275 100.596 74.5582V68.8046C99.9967 68.5924 99.4184 68.3643 98.8613 68.1202V73.8181Z" fill="#F2F2F2"/>
  <path d="M103.611 75.537C104.174 75.6909 104.752 75.8315 105.346 75.9588V70.1017C104.757 69.9824 104.176 69.855 103.611 69.7118V75.537Z" fill="#F2F2F2"/>
  <path d="M108.363 76.4759C108.936 76.5502 109.515 76.6139 110.098 76.6669V70.7621C109.509 70.7144 108.931 70.656 108.363 70.587V76.4759Z" fill="#F2F2F2"/>
  <path d="M113.115 70.9055V76.8262H113.911H114.89V70.9055H113.911H113.115Z" fill="#F2F2F2"/>
  <path d="M127.367 74.4785C127.972 74.2398 128.55 73.9745 129.102 73.6827V68.0246C128.571 68.2739 127.993 68.5074 127.367 68.7249V74.4785Z" fill="#F2F2F2"/>
  <path d="M122.617 75.911C123.211 75.7784 123.79 75.6351 124.352 75.4813V69.6561C123.784 69.7993 123.206 69.9319 122.617 70.054V75.911Z" fill="#F2F2F2"/>
  <path d="M117.865 76.651C118.454 76.5927 119.032 76.5263 119.6 76.4521V70.5632C119.032 70.6374 118.454 70.6985 117.865 70.7462V76.651Z" fill="#F2F2F2"/>
  <path d="M132.102 71.8843C132.734 71.4165 133.316 70.883 133.836 70.2927V65.0961C133.288 65.57 132.709 66.0061 132.102 66.4012V71.8843Z" fill="#F2F2F2"/>
  <path d="M133.861 54.9099C133.333 54.3183 132.744 53.7848 132.103 53.3183C128.251 50.3659 121.439 48.3605 113.855 48.3605C102.173 48.3605 92.2969 53.1353 92.2969 58.7775C92.3613 60.3217 93.0098 61.7837 94.1113 62.8679C94.6374 63.4383 95.2185 63.9554 95.8461 64.4117C96.7928 65.0977 97.8028 65.6919 98.8622 66.1864C99.4113 66.449 99.9922 66.6957 100.597 66.9265C101.585 67.305 102.591 67.6317 103.613 67.9053C104.175 68.0591 104.754 68.1997 105.348 68.3271C106.319 68.534 107.324 68.709 108.364 68.8523C108.937 68.9265 109.515 68.9902 110.099 69.0433C111.086 69.1335 112.091 69.1865 113.115 69.2024H113.911H114.89C115.913 69.2024 116.919 69.1441 117.906 69.0274C118.494 68.969 119.073 68.9 119.64 68.8204C120.701 68.6772 121.707 68.4968 122.656 68.2793C123.251 68.1467 123.829 68.0034 124.391 67.8496C125.4 67.5676 126.394 67.2329 127.368 66.8469C127.972 66.6081 128.551 66.3429 129.102 66.0511C130.16 65.5414 131.165 64.9283 132.103 64.2207C132.735 63.753 133.317 63.2195 133.837 62.6292C134.846 61.6088 135.411 60.232 135.411 58.7974C135.411 57.3628 134.846 55.986 133.837 54.9656L133.861 54.9099Z" fill="white"/>
  <path d="M133.862 52.4191C133.326 51.9575 132.759 51.5321 132.167 51.1459C127.933 48.3606 121.376 46.6019 113.863 46.6019C100.804 46.6019 90.5703 51.9417 90.5703 58.7616V66.4251C90.5703 68.8125 91.8595 71.0726 94.0957 72.9427C94.6457 73.402 95.2252 73.8246 95.8305 74.208C96.7933 74.8156 97.8017 75.3477 98.8466 75.7996C99.3771 76.0437 99.9554 76.2718 100.581 76.484C101.536 76.8235 102.542 77.1259 103.597 77.3912C104.163 77.5345 104.743 77.6618 105.332 77.7811C106.303 77.9774 107.309 78.1393 108.348 78.2666C108.921 78.3356 109.5 78.3939 110.083 78.4417C111.065 78.5212 112.07 78.569 113.099 78.5849H113.895H114.874C115.898 78.5849 116.903 78.5319 117.89 78.4257C118.479 78.3727 119.057 78.3117 119.625 78.2427C120.686 78.1101 121.691 77.943 122.641 77.7414C123.235 77.6193 123.813 77.4867 124.376 77.3435C125.437 77.0729 126.442 76.7625 127.392 76.4124C127.991 76.1949 128.57 75.9614 129.127 75.7121C130.173 75.2623 131.181 74.7301 132.143 74.1205C132.75 73.7254 133.33 73.2894 133.878 72.8154C135.986 70.9771 137.188 68.8364 137.188 66.449V58.7537C137.172 56.422 135.97 54.2574 133.862 52.4191ZM94.1116 65.2553C94.6616 65.7146 95.2411 66.1372 95.8464 66.5206V72.0196C95.2188 71.5632 94.6378 71.0461 94.1116 70.4757V65.2553ZM98.8864 68.1043C99.4169 68.3483 99.9952 68.5764 100.621 68.7887V74.5423C100.016 74.3115 99.4355 74.0648 98.8864 73.8022V68.1043ZM103.661 69.6959C104.226 69.8391 104.807 69.9664 105.396 70.0858V75.9429C104.802 75.8155 104.224 75.6749 103.661 75.5211V69.6959ZM108.436 70.5633C109.009 70.6322 109.587 70.6906 110.171 70.7384V76.6432C109.582 76.5901 109.004 76.5264 108.436 76.4522V70.5633ZM113.211 70.8896H114.007H114.985V76.8182H114.007H113.211V70.8896ZM117.985 70.7224C118.574 70.6694 119.153 70.6084 119.72 70.5394V76.4283C119.147 76.5079 118.569 76.5742 117.985 76.6272V70.7224ZM122.76 70.0381C123.354 69.916 123.933 69.7834 124.495 69.6402V75.4574C123.933 75.6113 123.354 75.7545 122.76 75.8872V70.0381ZM127.535 68.7091C128.135 68.4916 128.713 68.2581 129.27 68.0088V73.6987C128.739 73.9693 128.161 74.2346 127.535 74.4945V68.7091ZM132.31 66.3774C132.917 65.9822 133.497 65.5462 134.045 65.0723V70.229C133.524 70.8194 132.943 71.3529 132.31 71.8206V66.3774ZM134.045 62.5655C133.524 63.1558 132.943 63.6894 132.31 64.1571C131.368 64.8656 130.357 65.4787 129.294 65.9875C128.763 66.258 128.185 66.5233 127.559 66.7832C126.572 67.1706 125.565 67.5053 124.543 67.786C123.98 67.9398 123.402 68.0831 122.808 68.2157C121.837 68.4332 120.832 68.6136 119.792 68.7568C119.219 68.8364 118.641 68.9054 118.057 68.9637C117.07 69.0592 116.065 69.1176 115.041 69.1388H114.062H113.266C112.242 69.1388 111.237 69.0858 110.25 68.9796C109.661 68.9266 109.083 68.8629 108.516 68.7887C107.454 68.6507 106.449 68.4756 105.499 68.2634C104.905 68.1361 104.327 67.9955 103.765 67.8417C102.743 67.5681 101.736 67.2414 100.749 66.8628C100.144 66.632 99.5628 66.3853 99.0137 66.1227C97.9543 65.6283 96.9444 65.0341 95.9976 64.3481C95.3204 63.92 94.6884 63.424 94.1116 62.8679C93.0105 61.7753 92.3673 60.304 92.3131 58.7537C92.3131 53.1035 102.181 48.3367 113.871 48.3367C121.447 48.3367 128.259 50.3421 132.119 53.2945C132.752 53.7623 133.333 54.2958 133.854 54.8861C134.862 55.9065 135.428 57.2833 135.428 58.7179C135.428 60.1525 134.862 61.5292 133.854 62.5496L134.045 62.5655Z" fill="black"/>
  <path d="M36.6074 124.463C37.1336 125.033 37.7147 125.55 38.3423 126.006V120.507C37.7367 120.122 37.1572 119.696 36.6074 119.234V124.463Z" fill="#F2F2F2"/>
  <path d="M41.3809 127.773C41.93 128.036 42.5109 128.282 43.1157 128.513V122.759C42.5162 122.547 41.9379 122.319 41.3809 122.075V127.773Z" fill="#F2F2F2"/>
  <path d="M46.1152 129.5C46.6776 129.654 47.2559 129.794 47.8501 129.922V124.064C47.2612 123.945 46.6802 123.818 46.1152 123.675V129.5Z" fill="#F2F2F2"/>
  <path d="M50.8672 130.439C51.4402 130.513 52.0184 130.577 52.602 130.63V124.725C52.0131 124.677 51.4349 124.619 50.8672 124.55V130.439Z" fill="#F2F2F2"/>
  <path d="M55.6191 124.868V130.789H56.4149H57.3938V124.86H56.4149L55.6191 124.868Z" fill="#F2F2F2"/>
  <path d="M69.8711 128.433C70.4759 128.195 71.0542 127.929 71.6059 127.638V121.948C71.0754 122.197 70.4971 122.431 69.8711 122.648V128.433Z" fill="#F2F2F2"/>
  <path d="M65.1191 129.866C65.7133 129.733 66.2916 129.59 66.854 129.436V123.619C66.2863 123.762 65.708 123.895 65.1191 124.017V129.866Z" fill="#F2F2F2"/>
  <path d="M60.3697 130.614C60.9745 130.545 61.5422 130.476 62.0727 130.407V124.518C61.5051 124.592 60.9268 124.653 60.3379 124.701L60.3697 130.614Z" fill="#F2F2F2"/>
  <path d="M74.6211 125.839C75.254 125.371 75.8355 124.838 76.3559 124.248V119.091C75.8079 119.565 75.2283 120.001 74.6211 120.396V125.839Z" fill="#F2F2F2"/>
  <path d="M76.398 108.889C75.8775 108.299 75.296 107.765 74.6631 107.297C70.8115 104.345 63.9995 102.339 56.4155 102.339C44.7332 102.339 34.8574 107.114 34.8574 112.756C34.9166 114.275 35.541 115.717 36.6082 116.799C37.1343 117.369 37.7154 117.887 38.343 118.343C39.2973 119.03 40.3153 119.624 41.3829 120.117C41.932 120.38 42.513 120.627 43.1178 120.858C44.1054 121.236 45.1121 121.563 46.1339 121.836C46.6962 121.99 47.2745 122.131 47.8687 122.258C48.8396 122.465 49.8449 122.64 50.8848 122.783C51.4577 122.858 52.036 122.921 52.6196 122.974C53.6064 123.065 54.6117 123.118 55.6357 123.134H56.4315H57.4103C58.4342 123.134 59.4396 123.075 60.4263 122.958C61.0152 122.9 61.5935 122.831 62.1612 122.752C63.2222 122.608 64.2276 122.428 65.1772 122.21C65.7714 122.078 66.3497 121.935 66.9121 121.781C67.9345 121.5 68.9412 121.165 69.9282 120.778C70.533 120.539 71.1112 120.274 71.663 119.982C72.7264 119.473 73.7368 118.86 74.6791 118.152C75.3119 117.684 75.8934 117.151 76.4139 116.56C77.4223 115.54 77.9878 114.163 77.9878 112.729C77.9878 111.294 77.4223 109.917 76.4139 108.897L76.398 108.889Z" fill="#F2F2F2"/>
  <path d="M76.3968 106.382C75.8607 105.92 75.2944 105.495 74.7017 105.109C70.4681 102.324 63.9107 100.565 56.3984 100.565C43.3394 100.565 33.1055 105.905 33.1055 112.725V120.388C33.1055 122.775 34.3947 125.036 36.6308 126.906C37.1808 127.365 37.7604 127.788 38.3657 128.171C39.33 128.762 40.3383 129.278 41.3817 129.715C41.9123 129.959 42.4906 130.187 43.1166 130.399C44.0715 130.739 45.0769 131.041 46.1327 131.306C46.6977 131.45 47.2786 131.577 47.8675 131.696C48.8384 131.893 49.8437 132.054 50.8835 132.182C51.4565 132.251 52.0348 132.309 52.6184 132.357C53.5999 132.436 54.6052 132.484 55.6345 132.5H56.4303H57.4091C58.433 132.5 59.4384 132.447 60.4251 132.341C61.014 132.288 61.5923 132.227 62.16 132.158C63.221 132.025 64.2264 131.858 65.176 131.657C65.7702 131.535 66.3485 131.402 66.9109 131.259C67.9719 130.988 68.9773 130.678 69.9269 130.328C70.5264 130.11 71.1047 129.877 71.6618 129.627C72.7077 129.178 73.7162 128.645 74.6778 128.036C75.2799 127.637 75.8542 127.199 76.3968 126.723C78.5056 124.884 79.7073 122.744 79.7073 120.356V112.693C79.6754 110.377 78.4658 108.228 76.3968 106.382ZM36.607 119.234C37.157 119.693 37.7365 120.116 38.3418 120.5V125.998C37.7146 125.545 37.1335 125.03 36.607 124.463V119.234ZM41.3817 122.083C41.9123 122.327 42.4906 122.555 43.1166 122.768V128.521C42.5118 128.29 41.9308 128.044 41.3817 127.781V122.083ZM46.1565 123.675C46.7215 123.818 47.3025 123.945 47.8914 124.065V129.922C47.2972 129.794 46.7189 129.654 46.1565 129.5V123.675ZM50.9313 124.542C51.5043 124.611 52.0826 124.669 52.6661 124.717V130.622C52.0772 130.569 51.499 130.505 50.9313 130.431V124.542ZM55.7061 124.868H56.5019H57.4807V130.797H56.5019H55.7061V124.868ZM60.4809 124.701C61.0697 124.648 61.648 124.587 62.2157 124.518V130.407C61.6427 130.487 61.0644 130.553 60.4809 130.606V124.701ZM65.2556 124.017C65.8498 123.895 66.4281 123.762 66.9905 123.619V129.436C66.4281 129.59 65.8498 129.733 65.2556 129.866V124.017ZM70.0304 122.688C70.6299 122.47 71.2082 122.237 71.7652 121.988V127.678C71.2347 127.948 70.6564 128.213 70.0304 128.473V122.688ZM74.8052 120.356C75.363 119.958 75.8946 119.525 76.3968 119.059V124.216C75.8763 124.806 75.2948 125.34 74.6619 125.807L74.8052 120.356ZM76.3968 116.552C75.8763 117.143 75.2948 117.676 74.6619 118.144C73.7196 118.852 72.7093 119.465 71.6459 119.974C71.1153 120.245 70.5371 120.51 69.911 120.77C68.9082 121.154 67.8854 121.483 66.8472 121.757C66.2849 121.911 65.7066 122.054 65.1124 122.187C64.1468 122.431 63.1335 122.616 62.0724 122.744C61.4995 122.823 60.9212 122.892 60.3376 122.951C59.3508 123.046 58.3455 123.104 57.3215 123.126H56.3427H55.5469C54.523 123.126 53.5176 123.073 52.5308 122.966C51.942 122.913 51.3637 122.85 50.796 122.775C49.735 122.638 48.7296 122.462 47.7799 122.25C47.1858 122.123 46.6075 121.982 46.0451 121.828C45.0234 121.555 44.0167 121.228 43.029 120.85C42.4242 120.619 41.8433 120.372 41.2942 120.11C40.2348 119.615 39.2249 119.021 38.2781 118.335C37.6731 117.878 37.1134 117.363 36.607 116.799C35.5161 115.713 34.8764 114.255 34.8164 112.717C34.8164 107.066 44.6843 102.3 56.3745 102.3C63.9505 102.3 70.7625 104.305 74.6221 107.257C75.255 107.725 75.8365 108.259 76.357 108.849C77.3654 109.869 77.9309 111.246 77.9309 112.681C77.9309 114.115 77.3654 115.492 76.357 116.513L76.3968 116.552Z" fill="black"/>
  <path d="M39.4316 113.91C39.9578 114.481 40.5389 114.998 41.1665 115.454V109.955C40.5612 109.572 39.9816 109.149 39.4316 108.69V113.91Z" fill="#F2F2F2"/>
  <path d="M44.1816 117.229C44.7307 117.491 45.3117 117.738 45.9165 117.969V112.207C45.317 111.995 44.7387 111.767 44.1816 111.523V117.229Z" fill="#F2F2F2"/>
  <path d="M48.9336 118.948C49.496 119.101 50.0742 119.242 50.6684 119.369V113.512C50.0795 113.393 49.4986 113.266 48.9336 113.122V118.948Z" fill="#F2F2F2"/>
  <path d="M53.6855 119.887C54.2585 119.961 54.8368 120.025 55.4204 120.078V114.173C54.8315 114.125 54.2532 114.067 53.6855 113.998V119.887Z" fill="#F2F2F2"/>
  <path d="M58.4355 114.316V120.237H59.2313H60.2102V114.308H59.2313L58.4355 114.316Z" fill="#F2F2F2"/>
  <path d="M72.6875 117.889C73.2923 117.65 73.8706 117.385 74.4223 117.093V111.411C73.8918 111.661 73.3135 111.894 72.6875 112.112V117.889Z" fill="#F2F2F2"/>
  <path d="M67.9355 119.322C68.5297 119.189 69.108 119.046 69.6704 118.892V113.075C69.1027 113.218 68.5244 113.351 67.9355 113.473V119.322Z" fill="#F2F2F2"/>
  <path d="M63.1855 120.062C63.7744 120.003 64.3527 119.937 64.9204 119.863V113.974C64.3527 114.048 63.7744 114.109 63.1855 114.157V120.062Z" fill="#F2F2F2"/>
  <path d="M77.4395 115.295C78.0723 114.827 78.6538 114.294 79.1743 113.703V108.547C78.6253 109.009 78.0457 109.435 77.4395 109.82V115.295Z" fill="#F2F2F2"/>
  <path d="M79.1831 98.3366C78.6627 97.7463 78.0812 97.2128 77.4483 96.745C73.5966 93.7926 66.7846 91.7872 59.2007 91.7872C47.5184 91.7872 37.6426 96.5619 37.6426 102.204C37.7026 103.742 38.3423 105.201 39.4331 106.287C39.9593 106.857 40.5404 107.374 41.168 107.83C42.1147 108.516 43.1246 109.111 44.184 109.605C44.7331 109.868 45.3141 110.114 45.9189 110.345C46.9065 110.724 47.9132 111.05 48.9349 111.324C49.4973 111.478 50.0756 111.618 50.6698 111.746C51.6406 111.953 52.646 112.128 53.6858 112.271C54.2588 112.345 54.8371 112.409 55.4207 112.462C56.4074 112.552 57.4128 112.605 58.4367 112.621H59.2325H60.2114C61.2353 112.621 62.2406 112.563 63.2274 112.446C63.8163 112.388 64.3946 112.319 64.9623 112.239C66.0233 112.096 67.0287 111.916 67.9783 111.698C68.5725 111.565 69.1508 111.422 69.7132 111.268C70.7355 110.988 71.7423 110.653 72.7292 110.266C73.334 110.027 73.9123 109.762 74.4641 109.47C75.5275 108.961 76.5378 108.348 77.4801 107.639C78.113 107.172 78.6945 106.638 79.215 106.048C80.2234 105.027 80.7889 103.651 80.7889 102.216C80.7889 100.781 80.2234 99.4047 79.215 98.3843L79.1831 98.3366Z" fill="#F2F2F2"/>
  <path d="M79.1819 95.8298C78.6458 95.3682 78.0796 94.9428 77.4869 94.5566C73.2532 91.7713 66.6959 90.0126 59.1836 90.0126C46.1246 90.0126 35.8906 95.3524 35.8906 102.172V109.82C35.8906 112.207 37.1798 114.467 39.416 116.338C39.966 116.797 40.5455 117.219 41.1508 117.603C42.1136 118.21 43.122 118.743 44.1669 119.194C44.6974 119.438 45.2757 119.667 45.9017 119.879C46.8567 120.218 47.8621 120.521 48.9178 120.786C49.4828 120.929 50.0638 121.057 50.6526 121.176C51.6235 121.372 52.6289 121.534 53.6687 121.661C54.2417 121.73 54.82 121.789 55.4035 121.836C56.385 121.916 57.3904 121.964 58.4196 121.98H59.2154H60.1942C61.2182 121.98 62.2235 121.927 63.2103 121.821C63.7992 121.767 64.3775 121.706 64.9451 121.638C66.0062 121.505 67.0116 121.338 67.9612 121.136C68.5554 121.014 69.1337 120.881 69.696 120.738C70.7571 120.468 71.7625 120.157 72.7121 119.807C73.3116 119.59 73.8899 119.356 74.4469 119.107C75.4929 118.657 76.5014 118.125 77.463 117.515C78.0656 117.112 78.6399 116.668 79.1819 116.186C81.2908 114.348 82.4924 112.207 82.4924 109.82V102.156C82.4924 99.8247 81.2908 97.6602 79.1819 95.8298ZM39.4319 108.682C39.9819 109.141 40.5614 109.564 41.1668 109.947V115.446C40.5392 114.99 39.9581 114.473 39.4319 113.902V108.682ZM44.2067 111.531C44.7372 111.775 45.3155 112.003 45.9415 112.215V117.969C45.3367 117.738 44.7558 117.491 44.2067 117.229V111.531ZM48.9815 113.122C49.5465 113.266 50.1274 113.393 50.7163 113.512V119.369C50.1221 119.242 49.5438 119.102 48.9815 118.948V113.122ZM53.7562 113.99C54.3292 114.059 54.9075 114.117 55.4911 114.165V120.07C54.9022 120.017 54.3239 119.953 53.7562 119.879V113.99ZM58.531 114.316H59.3268H60.3056V120.245H59.3268H58.531V114.316ZM63.3058 114.149C63.8947 114.096 64.473 114.035 65.0406 113.966V119.855C64.4677 119.934 63.8894 120.001 63.3058 120.054V114.149ZM68.0806 113.465C68.6748 113.343 69.253 113.21 69.8154 113.067V118.884C69.253 119.038 68.6748 119.181 68.0806 119.314V113.465ZM72.8554 112.136C73.4548 111.918 74.0331 111.685 74.5902 111.435V117.125C74.0597 117.396 73.4814 117.661 72.8554 117.921V112.136ZM77.6301 109.804C78.2373 109.409 78.817 108.973 79.365 108.499V113.656C78.8445 114.246 78.263 114.779 77.6301 115.247V109.804ZM79.365 105.992C78.8445 106.582 78.263 107.116 77.6301 107.584C76.6878 108.292 75.6775 108.905 74.6141 109.414C74.0835 109.685 73.5052 109.95 72.8792 110.21C71.8923 110.597 70.8855 110.932 69.8632 111.213C69.3008 111.366 68.7225 111.51 68.1283 111.642C67.1574 111.86 66.1521 112.04 65.1123 112.183C64.5393 112.263 63.961 112.332 63.3774 112.39C62.3906 112.486 61.3853 112.544 60.3613 112.565H59.3825H58.5867C57.5628 112.565 56.5574 112.512 55.5707 112.406C54.9818 112.353 54.4035 112.29 53.8358 112.215C52.7748 112.077 51.7694 111.902 50.8198 111.69C50.2256 111.563 49.6473 111.422 49.0849 111.268C48.0632 110.995 47.0565 110.668 46.0689 110.289C45.4641 110.059 44.8831 109.812 44.334 109.549C43.2746 109.055 42.2647 108.461 41.318 107.775C40.6904 107.318 40.1093 106.801 39.5831 106.231C38.4923 105.145 37.8526 103.687 37.7926 102.148C37.7926 96.4983 47.6604 91.7315 59.3507 91.7315C66.9267 91.7315 73.7387 93.7369 77.5983 96.6893C78.2312 97.1571 78.8127 97.6906 79.3331 98.2809C80.3415 99.3013 80.9071 100.678 80.9071 102.113C80.9071 103.547 80.3415 104.924 79.3331 105.944L79.365 105.992Z" fill="black"/>
  <path d="M39.3281 102.658C39.8543 103.228 40.4354 103.745 41.063 104.201V98.6786C40.4576 98.2953 39.8781 97.8726 39.3281 97.4133V102.658Z" fill="#F2F2F2"/>
  <path d="M44.0801 105.936C44.6292 106.199 45.2101 106.446 45.8149 106.676V100.923C45.2154 100.711 44.6371 100.482 44.0801 100.238V105.936Z" fill="#F2F2F2"/>
  <path d="M48.8301 107.655C49.3924 107.809 49.9707 107.95 50.5649 108.077V102.22C49.976 102.101 49.3951 101.973 48.8301 101.83V107.655Z" fill="#F2F2F2"/>
  <path d="M53.5801 108.594C54.1531 108.669 54.7313 108.732 55.3149 108.785V102.881C54.726 102.833 54.1477 102.774 53.5801 102.705V108.594Z" fill="#F2F2F2"/>
  <path d="M58.332 103.024V108.944H59.1278H60.1067V103.016H59.1278L58.332 103.024Z" fill="#F2F2F2"/>
  <path d="M72.5859 106.597C73.1907 106.358 73.769 106.093 74.3208 105.801V100.111C73.7902 100.36 73.212 100.594 72.5859 100.811V106.597Z" fill="#F2F2F2"/>
  <path d="M67.834 108.029C68.4282 107.897 69.0065 107.753 69.5688 107.599V101.782C69.0012 101.925 68.4229 102.058 67.834 102.18V108.029Z" fill="#F2F2F2"/>
  <path d="M63.082 108.769C63.6709 108.711 64.2492 108.645 64.8169 108.57V102.658C64.2492 102.732 63.6709 102.793 63.082 102.841V108.769Z" fill="#F2F2F2"/>
  <path d="M77.3359 104.003C77.9688 103.535 78.5503 103.001 79.0708 102.411V97.2542C78.5228 97.7281 77.9432 98.1642 77.3359 98.5593V104.003Z" fill="#F2F2F2"/>
  <path d="M79.0698 87.0441C78.5494 86.4538 77.9679 85.9203 77.335 85.4525C73.4834 82.5001 66.6713 80.4947 59.0874 80.4947C47.4051 80.4947 37.5293 85.2695 37.5293 90.9117C37.5893 92.4497 38.229 93.9082 39.3198 94.9941C39.846 95.5645 40.4271 96.0816 41.0547 96.5379C42.0014 97.2239 43.0113 97.8181 44.0707 98.3126C44.6198 98.5752 45.2008 98.8219 45.8056 99.0527C46.7932 99.4312 47.7999 99.7579 48.8216 100.031C49.384 100.185 49.9623 100.326 50.5565 100.453C51.5273 100.66 52.5327 100.835 53.5725 100.978C54.1455 101.053 54.7238 101.116 55.3074 101.169C56.2942 101.26 57.2995 101.313 58.3234 101.329H59.1192H60.0981C61.122 101.329 62.1273 101.27 63.1141 101.154C63.703 101.095 64.2813 101.026 64.849 100.947C65.91 100.803 66.9154 100.623 67.865 100.406C68.4592 100.273 69.0375 100.13 69.5999 99.9758C70.6222 99.6951 71.629 99.3604 72.6159 98.9731C73.2207 98.7343 73.799 98.4691 74.3508 98.1773C75.4142 97.6685 76.4245 97.0554 77.3668 96.3469C77.9997 95.8792 78.5812 95.3457 79.1017 94.7554C80.1101 93.735 80.6756 92.3582 80.6756 90.9236C80.6756 89.489 80.1101 88.1122 79.1017 87.0918L79.0698 87.0441Z" fill="#F2F2F2"/>
  <path d="M79.07 84.5374C78.5339 84.0757 77.9677 83.6504 77.375 83.2641C73.1413 80.4788 66.584 78.7201 59.0717 78.7201C46.0286 78.7201 35.8105 84.0599 35.8105 90.8799V98.5434C35.8105 100.931 37.0997 103.191 39.3359 105.061C39.8859 105.52 40.4654 105.943 41.0708 106.326C42.0335 106.934 43.0419 107.466 44.0868 107.918C44.6174 108.162 45.1956 108.39 45.8217 108.602C46.7766 108.942 47.782 109.244 48.8377 109.509C49.4027 109.653 49.9837 109.78 50.5726 109.899C51.5434 110.096 52.5488 110.257 53.5886 110.385C54.1616 110.454 54.7399 110.512 55.3235 110.56C56.3049 110.639 57.3103 110.687 58.3395 110.703H59.1353H60.1142C61.1381 110.703 62.1434 110.65 63.1302 110.544C63.7191 110.491 64.2974 110.43 64.8651 110.361C65.9261 110.228 66.9315 110.061 67.8811 109.86C68.4753 109.738 69.0536 109.605 69.616 109.462C70.677 109.191 71.6824 108.881 72.632 108.531C73.2315 108.313 73.8098 108.08 74.3669 107.83C75.4128 107.381 76.4213 106.848 77.3829 106.239C77.9902 105.844 78.5699 105.408 79.1178 104.934C81.2266 103.095 82.4283 100.955 82.4283 98.5672V90.8799C82.3885 88.5402 81.1709 86.3757 79.07 84.5374ZM39.328 97.3974C39.8775 97.8621 40.457 98.2901 41.0628 98.6787V104.178C40.4363 103.729 39.8553 103.22 39.328 102.658V97.3974ZM44.1027 100.246C44.6333 100.49 45.2115 100.719 45.8376 100.931V106.684C45.2328 106.454 44.6518 106.207 44.1027 105.944V100.246ZM48.8775 101.838C49.4425 101.981 50.0235 102.109 50.6124 102.228V108.085C50.0182 107.958 49.4399 107.817 48.8775 107.663V101.838ZM53.6523 102.705C54.2253 102.774 54.8035 102.833 55.3871 102.88V108.785C54.7982 108.732 54.22 108.669 53.6523 108.594V102.705ZM58.4271 103.032H59.2229H60.2017V108.96H59.2229H58.4271V103.032ZM63.2018 102.865C63.7907 102.811 64.369 102.75 64.9367 102.682V108.57C64.3637 108.65 63.7854 108.716 63.2018 108.769V102.865ZM67.9766 102.18C68.5708 102.058 69.1491 101.926 69.7115 101.782V107.6C69.1491 107.753 68.5708 107.897 67.9766 108.029V102.18ZM72.7514 100.851C73.3509 100.634 73.9292 100.4 74.4862 100.151V105.841C73.9557 106.111 73.3774 106.377 72.7514 106.637V100.851ZM77.5262 98.5195C78.1334 98.1243 78.713 97.6883 79.261 97.2144V102.371C78.7406 102.961 78.159 103.495 77.5262 103.963V98.5195ZM79.07 94.6997C78.5496 95.29 77.968 95.8235 77.3352 96.2913C76.3929 96.9997 75.3826 97.6128 74.3191 98.1216C73.7886 98.3922 73.2103 98.6574 72.5843 98.9174C71.5974 99.3047 70.5906 99.6394 69.5682 99.9201C69.0058 100.074 68.4276 100.217 67.8334 100.35C66.8625 100.567 65.8571 100.748 64.8173 100.891C64.2443 100.971 63.6661 101.04 63.0825 101.098C62.0957 101.193 61.0903 101.252 60.0664 101.273H59.0876H58.2918C57.2679 101.273 56.2625 101.22 55.2757 101.114C54.6868 101.061 54.1085 100.997 53.5409 100.923C52.4798 100.785 51.4745 100.61 50.5248 100.398C49.9306 100.27 49.3523 100.13 48.79 99.9758C47.7683 99.7022 46.7616 99.3755 45.7739 98.997C45.1691 98.7662 44.5882 98.5195 44.0391 98.2569C42.9796 97.7625 41.9697 97.1682 41.023 96.4823C40.3954 96.0259 39.8143 95.5088 39.2882 94.9384C38.1973 93.8525 37.5577 92.394 37.4976 90.856C37.4976 85.2058 47.3655 80.439 59.0557 80.439C66.6317 80.439 73.4437 82.4444 77.3033 85.3968C77.9362 85.8646 78.5177 86.3981 79.0382 86.9884C80.0466 88.0088 80.6121 89.3856 80.6121 90.8202C80.6121 92.2548 80.0466 93.6315 79.0382 94.6519L79.07 94.6997Z" fill="black"/>
  <rect x="155" y="52" width="138" height="39" fill="#FFFF00"/>
  <rect x="155" y="94" width="103" height="39" fill="#FFFF00"/>
  <path d="M169.428 79.7447H170.697C171.68 79.7447 172.358 79.5283 172.732 79.0957C173.125 78.663 173.322 77.8862 173.322 76.7652V67.4432C173.322 66.3222 173.125 65.5453 172.732 65.1127C172.358 64.68 171.68 64.4637 170.697 64.4637H169.428V79.7447ZM165.77 61.4547H171.198C173.106 61.4547 174.541 61.9758 175.505 63.0182C176.488 64.0605 176.98 65.683 176.98 67.8857V76.3227C176.98 78.5253 176.488 80.1478 175.505 81.1902C174.541 82.2325 173.106 82.7537 171.198 82.7537H165.77V61.4547ZM180.52 82.7537V61.4547H190.314V64.6407H184.178V70.1277H188.898V73.3137H184.178V79.5677H190.727V82.7537H180.52ZM186.007 60.3337H183.559L185.889 56.0857H189.872L186.007 60.3337ZM197.286 79.7447H198.554C199.538 79.7447 200.216 79.5283 200.59 79.0957C200.983 78.663 201.18 77.8862 201.18 76.7652V67.4432C201.18 66.3222 200.983 65.5453 200.59 65.1127C200.216 64.68 199.538 64.4637 198.554 64.4637H197.286V79.7447ZM193.628 61.4547H199.056C200.964 61.4547 202.399 61.9758 203.363 63.0182C204.346 64.0605 204.838 65.683 204.838 67.8857V76.3227C204.838 78.5253 204.346 80.1478 203.363 81.1902C202.399 82.2325 200.964 82.7537 199.056 82.7537H193.628V61.4547ZM208.378 61.4547H212.036V77.5322C212.036 79.0858 212.685 79.8627 213.983 79.8627C215.281 79.8627 215.93 79.0858 215.93 77.5322V61.4547H219.588V77.3847C219.588 79.2333 219.086 80.6395 218.083 81.6032C217.1 82.5668 215.733 83.0487 213.983 83.0487C212.233 83.0487 210.856 82.5668 209.853 81.6032C208.87 80.6395 208.378 79.2333 208.378 77.3847V61.4547ZM230.503 68.5642V66.9122C230.503 66.0075 230.326 65.3585 229.972 64.9652C229.618 64.5522 229.205 64.3457 228.733 64.3457C227.986 64.3457 227.474 64.5423 227.199 64.9357C226.924 65.3093 226.786 65.8993 226.786 66.7057V77.5027C226.786 78.309 226.924 78.9088 227.199 79.3022C227.474 79.6758 227.986 79.8627 228.733 79.8627C229.402 79.8627 229.864 79.6758 230.119 79.3022C230.375 78.9285 230.503 78.3975 230.503 77.7092V75.1427H234.161V77.5912C234.161 78.3385 234.043 79.0465 233.807 79.7152C233.591 80.3838 233.256 80.964 232.804 81.4557C232.371 81.9473 231.811 82.3407 231.122 82.6357C230.434 82.911 229.638 83.0487 228.733 83.0487C227.769 83.0487 226.933 82.911 226.225 82.6357C225.537 82.3407 224.957 81.9473 224.485 81.4557C224.033 80.964 223.688 80.3838 223.452 79.7152C223.236 79.0465 223.128 78.3385 223.128 77.5912V66.6172C223.128 65.8698 223.236 65.1618 223.452 64.4932C223.688 63.8245 224.033 63.2443 224.485 62.7527C224.957 62.261 225.537 61.8775 226.225 61.6022C226.933 61.3072 227.769 61.1597 228.733 61.1597C229.638 61.1597 230.434 61.317 231.122 61.6317C231.811 61.9463 232.371 62.3692 232.804 62.9002C233.256 63.4312 233.591 64.0507 233.807 64.7587C234.043 65.4667 234.161 66.214 234.161 67.0007V68.5642H230.503ZM240.002 64.6407H236.462V61.4547H247.2V64.6407H243.66V82.7537H240.002V64.6407ZM249.845 82.7537V61.4547H253.503V82.7537H249.845ZM261.212 77.5027C261.212 78.309 261.35 78.9088 261.625 79.3022C261.901 79.6758 262.412 79.8627 263.159 79.8627C263.907 79.8627 264.418 79.6758 264.693 79.3022C264.969 78.9088 265.106 78.309 265.106 77.5027V66.7057C265.106 65.8993 264.969 65.3093 264.693 64.9357C264.418 64.5423 263.907 64.3457 263.159 64.3457C262.412 64.3457 261.901 64.5423 261.625 64.9357C261.35 65.3093 261.212 65.8993 261.212 66.7057V77.5027ZM257.554 66.6172C257.554 65.8698 257.662 65.1618 257.879 64.4932C258.115 63.8245 258.459 63.2443 258.911 62.7527C259.383 62.261 259.963 61.8775 260.652 61.6022C261.36 61.3072 262.196 61.1597 263.159 61.1597C264.123 61.1597 264.949 61.3072 265.637 61.6022C266.345 61.8775 266.925 62.261 267.378 62.7527C267.85 63.2443 268.194 63.8245 268.41 64.4932C268.646 65.1618 268.764 65.8698 268.764 66.6172V77.5912C268.764 78.3385 268.646 79.0465 268.41 79.7152C268.194 80.3838 267.85 80.964 267.378 81.4557C266.925 81.9473 266.345 82.3407 265.637 82.6357C264.949 82.911 264.123 83.0487 263.159 83.0487C262.196 83.0487 261.36 82.911 260.652 82.6357C259.963 82.3407 259.383 81.9473 258.911 81.4557C258.459 80.964 258.115 80.3838 257.879 79.7152C257.662 79.0465 257.554 78.3385 257.554 77.5912V66.6172ZM272.304 82.7537V61.4547H275.697L280.151 73.6382H280.21V61.4547H283.514V82.7537H280.328L275.667 69.4492H275.608V82.7537H272.304Z" fill="black" fill-opacity="0.9"/>
  <path d="M165.77 125.167V103.868H175.977V107.054H169.428V112.541H174.325V115.727H169.428V125.167H165.77ZM179.379 125.167V103.868H183.037V125.167H179.379ZM193.755 109.119C193.716 108.667 193.628 108.293 193.49 107.998C193.372 107.684 193.215 107.438 193.018 107.261C192.841 107.084 192.644 106.956 192.428 106.877C192.212 106.799 192.005 106.759 191.808 106.759C191.218 106.759 190.766 106.946 190.451 107.32C190.137 107.674 189.979 108.185 189.979 108.854C189.979 109.464 190.156 110.024 190.51 110.535C190.884 111.047 191.346 111.558 191.897 112.069C192.448 112.581 193.047 113.102 193.696 113.633C194.345 114.144 194.945 114.715 195.496 115.344C196.047 115.973 196.499 116.671 196.853 117.438C197.227 118.186 197.413 119.041 197.413 120.005C197.413 120.89 197.266 121.677 196.971 122.365C196.696 123.034 196.302 123.604 195.791 124.076C195.299 124.528 194.69 124.872 193.962 125.108C193.254 125.344 192.477 125.462 191.631 125.462C190.786 125.462 190.029 125.305 189.36 124.99C188.691 124.676 188.121 124.253 187.649 123.722C187.197 123.171 186.843 122.542 186.587 121.834C186.331 121.126 186.184 120.369 186.144 119.562L189.625 119.061C189.704 120.143 189.94 120.949 190.333 121.48C190.727 122.011 191.218 122.276 191.808 122.276C192.438 122.276 192.949 122.109 193.342 121.775C193.736 121.441 193.932 120.959 193.932 120.329C193.932 119.621 193.746 118.992 193.372 118.441C193.018 117.891 192.566 117.36 192.015 116.848C191.464 116.337 190.864 115.826 190.215 115.314C189.566 114.803 188.967 114.243 188.416 113.633C187.865 113.023 187.403 112.335 187.029 111.568C186.675 110.801 186.498 109.906 186.498 108.883C186.498 107.172 186.99 105.865 187.973 104.96C188.957 104.036 190.353 103.573 192.162 103.573C192.91 103.573 193.578 103.701 194.168 103.957C194.758 104.213 195.26 104.576 195.673 105.048C196.106 105.501 196.45 106.042 196.705 106.671C196.981 107.3 197.158 107.989 197.236 108.736L193.755 109.119ZM207.571 110.978V109.326C207.571 108.421 207.394 107.772 207.04 107.379C206.686 106.966 206.273 106.759 205.801 106.759C205.054 106.759 204.543 106.956 204.267 107.349C203.992 107.723 203.854 108.313 203.854 109.119V119.916C203.854 120.723 203.992 121.323 204.267 121.716C204.543 122.09 205.054 122.276 205.801 122.276C206.47 122.276 206.932 122.09 207.188 121.716C207.443 121.342 207.571 120.811 207.571 120.123V117.556H211.229V120.005C211.229 120.752 211.111 121.46 210.875 122.129C210.659 122.798 210.325 123.378 209.872 123.869C209.44 124.361 208.879 124.754 208.191 125.049C207.502 125.325 206.706 125.462 205.801 125.462C204.838 125.462 204.002 125.325 203.294 125.049C202.605 124.754 202.025 124.361 201.553 123.869C201.101 123.378 200.757 122.798 200.521 122.129C200.304 121.46 200.196 120.752 200.196 120.005V109.031C200.196 108.284 200.304 107.576 200.521 106.907C200.757 106.238 201.101 105.658 201.553 105.166C202.025 104.675 202.605 104.291 203.294 104.016C204.002 103.721 204.838 103.573 205.801 103.573C206.706 103.573 207.502 103.731 208.191 104.045C208.879 104.36 209.44 104.783 209.872 105.314C210.325 105.845 210.659 106.464 210.875 107.172C211.111 107.88 211.229 108.628 211.229 109.414V110.978H207.571ZM218.25 117.261H221.2L219.755 108.116H219.696L218.25 117.261ZM217.07 125.167H213.53L217.454 103.868H221.997L225.92 125.167H222.38L221.731 120.447H217.719L217.07 125.167ZM227.877 125.167V103.868H231.535V121.981H237.288V125.167H227.877ZM239.52 125.167V103.868H249.314V107.054H243.178V112.541H247.898V115.727H243.178V121.981H249.727V125.167H239.52Z" fill="black" fill-opacity="0.9"/>
  <path d="M36.5669 59.877C36.5669 61.671 37.3209 62.568 38.8289 62.568C40.3369 62.568 41.0909 61.671 41.0909 59.877V55.197C41.0909 54.287 40.8959 53.611 40.5059 53.169C40.1419 52.727 39.6609 52.506 39.0629 52.506C38.6209 52.506 38.1659 52.662 37.6979 52.974C37.2299 53.286 36.8529 53.559 36.5669 53.793V59.877ZM40.8959 45.408V43.965C40.8959 42.171 40.2069 41.274 38.8289 41.274C37.3209 41.274 36.5669 42.171 36.5669 43.965V50.556C36.8789 50.244 37.1649 49.971 37.4249 49.737C37.7109 49.503 37.9969 49.308 38.2829 49.152C38.5949 48.996 38.9199 48.879 39.2579 48.801C39.6219 48.723 40.0509 48.684 40.5449 48.684C41.2469 48.684 41.9099 48.788 42.5339 48.996C43.1579 49.204 43.7039 49.542 44.1719 50.01C44.6399 50.478 45.0039 51.076 45.2639 51.804C45.5499 52.532 45.6929 53.416 45.6929 54.456V57.81C45.6929 60.8 45.1599 62.984 44.0939 64.362C43.0279 65.714 41.2729 66.39 38.8289 66.39C36.3849 66.39 34.6299 65.779 33.5639 64.557C32.4979 63.309 31.9649 61.346 31.9649 58.668V45.174C31.9649 42.496 32.4979 40.546 33.5639 39.324C34.6299 38.076 36.3849 37.452 38.8289 37.452C39.7909 37.426 40.6489 37.569 41.4029 37.881C42.1829 38.193 42.8459 38.635 43.3919 39.207C43.9379 39.753 44.3539 40.416 44.6399 41.196C44.9519 41.976 45.1079 42.808 45.1079 43.692V45.408H40.8959ZM53.896 59.877C53.896 61.671 54.65 62.568 56.158 62.568C57.666 62.568 58.42 61.671 58.42 59.877V55.197C58.42 54.287 58.225 53.611 57.835 53.169C57.471 52.727 56.99 52.506 56.392 52.506C55.95 52.506 55.495 52.662 55.027 52.974C54.559 53.286 54.182 53.559 53.896 53.793V59.877ZM58.225 45.408V43.965C58.225 42.171 57.536 41.274 56.158 41.274C54.65 41.274 53.896 42.171 53.896 43.965V50.556C54.208 50.244 54.494 49.971 54.754 49.737C55.04 49.503 55.326 49.308 55.612 49.152C55.924 48.996 56.249 48.879 56.587 48.801C56.951 48.723 57.38 48.684 57.874 48.684C58.576 48.684 59.239 48.788 59.863 48.996C60.487 49.204 61.033 49.542 61.501 50.01C61.969 50.478 62.333 51.076 62.593 51.804C62.879 52.532 63.022 53.416 63.022 54.456V57.81C63.022 60.8 62.489 62.984 61.423 64.362C60.357 65.714 58.602 66.39 56.158 66.39C53.714 66.39 51.959 65.779 50.893 64.557C49.827 63.309 49.294 61.346 49.294 58.668V45.174C49.294 42.496 49.827 40.546 50.893 39.324C51.959 38.076 53.714 37.452 56.158 37.452C57.12 37.426 57.978 37.569 58.732 37.881C59.512 38.193 60.175 38.635 60.721 39.207C61.267 39.753 61.683 40.416 61.969 41.196C62.281 41.976 62.437 42.808 62.437 43.692V45.408H58.225Z" fill="black"/>
  <path d="M68.8168 52.84C68.8168 53.3067 68.9768 53.7067 69.2968 54.04C69.6301 54.36 70.0301 54.52 70.4968 54.52C70.9635 54.52 71.3568 54.36 71.6768 54.04C72.0101 53.7067 72.1768 53.3067 72.1768 52.84C72.1768 52.3733 72.0101 51.98 71.6768 51.66C71.3568 51.3267 70.9635 51.16 70.4968 51.16C70.0301 51.16 69.6301 51.3267 69.2968 51.66C68.9768 51.98 68.8168 52.3733 68.8168 52.84ZM75.8168 60.72C75.8168 61.1867 75.9768 61.5867 76.2968 61.92C76.6301 62.24 77.0301 62.4 77.4968 62.4C77.9635 62.4 78.3568 62.24 78.6768 61.92C79.0101 61.5867 79.1768 61.1867 79.1768 60.72C79.1768 60.2533 79.0101 59.86 78.6768 59.54C78.3568 59.2067 77.9635 59.04 77.4968 59.04C77.0301 59.04 76.6301 59.2067 76.2968 59.54C75.9768 59.86 75.8168 60.2533 75.8168 60.72ZM78.8568 49.36L70.6768 64.2H69.1768L77.3568 49.36H78.8568ZM74.2168 60.72C74.2168 60.2667 74.3035 59.84 74.4768 59.44C74.6501 59.04 74.8835 58.6933 75.1768 58.4C75.4701 58.1067 75.8168 57.8733 76.2168 57.7C76.6168 57.5267 77.0435 57.44 77.4968 57.44C77.9501 57.44 78.3768 57.5267 78.7768 57.7C79.1768 57.8733 79.5235 58.1067 79.8168 58.4C80.1101 58.6933 80.3435 59.04 80.5168 59.44C80.6901 59.84 80.7768 60.2667 80.7768 60.72C80.7768 61.1733 80.6901 61.6 80.5168 62C80.3435 62.4 80.1101 62.7467 79.8168 63.04C79.5235 63.3333 79.1768 63.5667 78.7768 63.74C78.3768 63.9133 77.9501 64 77.4968 64C77.0435 64 76.6168 63.9133 76.2168 63.74C75.8168 63.5667 75.4701 63.3333 75.1768 63.04C74.8835 62.7467 74.6501 62.4 74.4768 62C74.3035 61.6 74.2168 61.1733 74.2168 60.72ZM67.2168 52.84C67.2168 52.3867 67.3035 51.96 67.4768 51.56C67.6501 51.16 67.8835 50.8133 68.1768 50.52C68.4701 50.2267 68.8168 49.9933 69.2168 49.82C69.6168 49.6467 70.0435 49.56 70.4968 49.56C70.9501 49.56 71.3768 49.6467 71.7768 49.82C72.1768 49.9933 72.5235 50.2267 72.8168 50.52C73.1101 50.8133 73.3435 51.16 73.5168 51.56C73.6901 51.96 73.7768 52.3867 73.7768 52.84C73.7768 53.2933 73.6901 53.72 73.5168 54.12C73.3435 54.52 73.1101 54.8667 72.8168 55.16C72.5235 55.4533 72.1768 55.6867 71.7768 55.86C71.3768 56.0333 70.9501 56.12 70.4968 56.12C70.0435 56.12 69.6168 56.0333 69.2168 55.86C68.8168 55.6867 68.4701 55.4533 68.1768 55.16C67.8835 54.8667 67.6501 54.52 67.4768 54.12C67.3035 53.72 67.2168 53.2933 67.2168 52.84Z" fill="black"/>
</svg>
