<svg width="32" height="32" viewBox="0 0 32 32" fill="none" xmlns="http://www.w3.org/2000/svg">
<path d="M16.095 5.41326C18.7212 5.45327 21.3475 5.47994 23.9737 5.53328C25.0402 5.55995 26.1067 5.6533 27.1732 5.75998C28.0531 5.83999 28.6797 6.34672 29.1463 7.04015C29.7995 8.00028 30.0794 9.10709 30.2794 10.2272C30.7593 12.9076 30.6793 15.6013 30.626 18.3083C30.586 20.0552 30.4127 21.7888 29.9061 23.4557C29.6662 24.2425 29.3062 24.9892 28.7063 25.576C28.2797 25.9894 27.7865 26.2694 27.1866 26.2961C25.3069 26.4028 23.4272 26.5628 21.5475 26.6028C17.868 26.6561 14.1886 26.6828 10.4959 26.6561C8.25621 26.6295 6.01656 26.4828 3.77691 26.3628C2.65709 26.3094 1.89721 25.6693 1.3373 24.7492C0.750724 23.7624 0.524093 22.6556 0.350787 21.5488C-0.129138 18.4283 -0.0491502 15.2813 0.190812 12.1475C0.270799 11.0407 0.510762 9.93387 0.737393 8.84039C0.81738 8.427 1.03068 8.04028 1.20399 7.64023C1.77723 6.28005 2.87039 5.6933 4.29683 5.65329C8.22955 5.54661 12.1623 5.43993 16.095 5.33325C16.095 5.37326 16.095 5.38659 16.095 5.41326ZM12.2689 10.4406V21.6421C15.2018 19.7752 18.068 17.9349 21.0142 16.0547C18.068 14.1611 15.1885 12.3075 12.2689 10.4406Z" fill="black"/>
</svg>
