<svg width="32" height="32" viewBox="0 0 32 32" fill="none" xmlns="http://www.w3.org/2000/svg">
<path d="M26.1188 8.91475C24.7872 8.62992 23.5814 7.92722 22.6772 6.90909C21.773 5.89096 21.2177 4.61063 21.0921 3.25475V2.66675H16.4988V20.8961C16.4959 21.7031 16.2403 22.489 15.7678 23.1432C15.2953 23.7975 14.6297 24.2872 13.8644 24.5437C13.0992 24.8001 12.2729 24.8104 11.5016 24.573C10.7302 24.3355 10.0527 23.8624 9.56411 23.2201C9.06795 22.567 8.79272 21.7728 8.77833 20.9528C8.76394 20.1327 9.01113 19.3294 9.48407 18.6593C9.957 17.9892 10.6311 17.4871 11.4086 17.226C12.1861 16.9648 13.0265 16.9581 13.8081 17.2067V12.5401C12.0652 12.2991 10.2907 12.609 8.73258 13.4263C7.17449 14.2436 5.91083 15.5275 5.11835 17.0983C4.32587 18.6692 4.0442 20.4485 4.31275 22.1873C4.58131 23.9261 5.38664 25.5375 6.61611 26.7961C7.78859 27.9957 9.29196 28.8188 10.9343 29.1602C12.5767 29.5017 14.2835 29.3459 15.837 28.7129C17.3904 28.0799 18.72 26.9984 19.656 25.6063C20.592 24.2143 21.092 22.5749 21.0921 20.8974V11.5827C22.9484 12.9099 25.1742 13.6215 27.4561 13.6174V9.05341C27.0067 9.05397 26.5585 9.00749 26.1188 8.91475Z" fill="black"/>
</svg>
