<svg width="53" height="54" viewBox="0 0 53 54" fill="none" xmlns="http://www.w3.org/2000/svg">
<path d="M42.3435 21.1397C41.8985 20.2503 41.1623 19.5791 40.1456 19.1339C40.5581 17.8811 40.9132 15.7683 39.4505 14.1346C38.123 12.6515 36.4459 12.3874 35.1022 12.5555C35.139 11.4184 34.7633 10.1001 33.3926 9.13971C32.1182 8.24702 30.6511 8.15862 29.2522 8.88871C29.1179 7.6337 28.6751 6.16044 27.4278 5.38889C25.3965 4.1317 23.7302 4.60424 22.6897 5.22083C21.6849 5.81668 21.1046 6.64607 20.9963 6.80868L16.5668 13.135L16.5906 13.1524C14.4068 14.8167 11.7302 16.8902 11.0015 17.6006C8.85448 19.6926 9.65354 22.2627 9.68927 22.3707C9.70226 22.4111 9.71742 22.4493 9.73583 22.4875C9.8939 22.8225 13.6077 30.7006 14.3115 31.9873C15.0402 33.3187 15.0791 36.0841 15.0326 37.0379C15.0326 37.0542 15.0315 37.0706 15.0315 37.087V47.8702H16.9804V37.111C17.0042 36.5981 17.1233 33.0611 16.0179 31.04C15.3769 29.8691 11.9219 22.5486 11.531 21.7214C11.4628 21.4442 11.2159 20.1248 12.3561 19.0149C13.3056 18.0906 18.5428 14.1204 20.6585 12.5348C21.0721 12.4267 22.4916 12.1801 23.7313 13.4296C25.2417 14.952 28.6296 18.2161 30.0047 19.5377C29.7881 19.8127 29.4871 20.1433 29.1071 20.4347C28.0969 21.2106 27.0022 21.3885 25.7658 20.9771L21.3612 17.0255L20.0651 18.4933L20.3023 18.7061C19.9666 19.4689 18.9239 21.4649 17.0335 21.9626L17.525 23.8636C19.8313 23.2568 21.1793 21.2892 21.8159 20.0648L24.6148 22.5748C24.7058 22.6566 24.8119 22.7199 24.9256 22.7625C25.9715 23.151 26.9048 23.2208 27.719 23.1062C27.6097 23.5133 27.5544 23.9444 27.5956 24.3787C27.6757 25.2114 28.0893 25.9185 28.8267 26.4806C29.3973 26.916 29.9895 27.0895 30.5666 27.0895C31.0593 27.0895 31.5411 26.9618 31.9904 26.7632C31.6136 27.681 31.514 28.9174 32.5718 29.9422C33.124 30.4769 33.7466 30.7465 34.4244 30.7465C34.4775 30.7465 34.5305 30.7443 34.5836 30.7421C36.2044 30.6428 37.52 29.0386 37.5752 28.9709L36.9883 28.4886C36.9764 28.5027 35.8309 29.9007 34.5381 29.9804C34.0108 30.0131 33.5398 29.82 33.097 29.3922C32.5318 28.8443 32.3564 28.1743 32.5762 27.3983C32.7537 26.7741 33.124 26.3103 33.1251 26.3092L36.9732 21.681L36.3917 21.1899L33.5062 24.6614L33.4987 24.6548C33.4933 24.6624 32.9032 25.3729 32.0662 25.8662C31.0235 26.4817 30.087 26.4838 29.2825 25.8705C28.7141 25.4373 28.4087 24.9254 28.3481 24.3067C28.3026 23.832 28.4087 23.3485 28.5765 22.9076C29.2922 22.6763 29.8877 22.3129 30.3544 21.9451C31.5118 21.0317 32.1084 19.9033 32.1333 19.8563C32.3358 19.4678 32.2589 18.9898 31.9428 18.6875C31.9341 18.6788 31.7641 18.5162 31.4815 18.2445L32.888 16.1568L32.2611 15.7279L30.9261 17.7097C29.9256 16.7472 28.3578 15.2347 27.0066 13.9142L27.6118 12.9833L26.9784 12.5642L26.4533 13.3718C25.9336 12.8622 25.468 12.4005 25.1096 12.0404C23.5602 10.4787 21.8181 10.3893 20.7852 10.5191L22.5966 7.93163C22.6042 7.92181 22.6074 7.91635 22.6139 7.90544C22.6182 7.89889 23.0318 7.28121 23.727 6.88725C24.5672 6.41035 25.4431 6.46819 26.4067 7.06404C27.4472 7.70791 27.3996 10.0269 27.3011 10.7865C27.2437 11.2219 27.4797 11.6399 27.8793 11.8156C28.2788 11.9913 28.7465 11.8756 29.0226 11.5373C29.185 11.3376 30.6608 9.61988 32.2784 10.7537C33.6871 11.7414 32.9995 13.3445 32.9194 13.518C32.7375 13.8967 32.8122 14.3518 33.111 14.6475C33.4088 14.9433 33.8581 15.0153 34.2306 14.8254C34.3215 14.7807 36.4751 13.7461 38.0018 15.4518C39.2491 16.8454 38.0018 19.2397 37.9899 19.2605C37.8459 19.5279 37.8329 19.8465 37.9541 20.1259C38.0754 20.4042 38.3179 20.6104 38.6113 20.6835C39.6075 20.9335 40.2755 21.382 40.5971 22.0171C41.1634 23.1357 40.5949 24.585 40.5906 24.5948C40.5646 24.6581 37.9433 30.9997 35.4866 35.1281C33.3016 38.797 29.6474 38.7741 29.4925 38.7708L29.4427 40.7341C29.4536 40.7341 29.4763 40.7341 29.5099 40.7341C29.7697 40.7341 30.6879 40.7057 31.8605 40.3489V49.566H33.8094V39.5009C34.9788 38.821 36.186 37.769 37.1562 36.1375C39.6887 31.8836 42.2807 25.6119 42.389 25.3467C42.4269 25.255 43.3061 23.0713 42.3403 21.1397H42.3435Z" fill="#FFFF00"/>
<path d="M21.8173 24.7443L21.499 25.4372C21.5445 25.458 26.001 27.5937 26.3529 31.7865C26.6799 35.6791 25.3666 37.6238 25.3547 37.6413L25.9729 38.0833C26.0335 37.9971 27.4606 35.917 27.1087 31.721C26.7189 27.0807 22.0187 24.8359 21.8184 24.7432L21.8173 24.7443Z" fill="#FFFF00"/>
</svg>
