<svg width="24" height="24" viewBox="0 0 24 24" fill="none" xmlns="http://www.w3.org/2000/svg">
<path d="M17.9825 18.725C17.2838 17.7999 16.3798 17.0496 15.3417 16.5334C14.3036 16.0171 13.1599 15.749 12.0005 15.75C10.8411 15.749 9.69739 16.0171 8.65932 16.5334C7.62125 17.0496 6.71724 17.7999 6.0185 18.725M17.9825 18.725C19.346 17.5122 20.3076 15.9136 20.7417 14.1411C21.1758 12.3686 21.0608 10.5061 20.412 8.80049C19.7632 7.09488 18.6112 5.62679 17.1089 4.59091C15.6066 3.55503 13.8248 3.00031 12 3.00031C10.1752 3.00031 8.39343 3.55503 6.89111 4.59091C5.38878 5.62679 4.23683 7.09488 3.58804 8.80049C2.93924 10.5061 2.82425 12.3686 3.25832 14.1411C3.69239 15.9136 4.655 17.5122 6.0185 18.725M17.9825 18.725C16.3365 20.1932 14.2061 21.0032 12.0005 21C9.79453 21.0034 7.66474 20.1934 6.0185 18.725M15.0005 9.75001C15.0005 10.5457 14.6844 11.3087 14.1218 11.8713C13.5592 12.4339 12.7962 12.75 12.0005 12.75C11.2049 12.75 10.4418 12.4339 9.87918 11.8713C9.31657 11.3087 9.0005 10.5457 9.0005 9.75001C9.0005 8.95436 9.31657 8.1913 9.87918 7.62869C10.4418 7.06608 11.2049 6.75001 12.0005 6.75001C12.7962 6.75001 13.5592 7.06608 14.1218 7.62869C14.6844 8.1913 15.0005 8.95436 15.0005 9.75001Z" stroke="white" stroke-width="1.5" stroke-linecap="round" stroke-linejoin="round"/>
</svg>
